{
	"asset":{
		"generator":"Khronos glTF Blender I/O v5.2.40",
		"version":"2.0"
	},
	"scene":0,
	"scenes":[
		{
			"name":"Scene",
			"nodes":[
				0,
				1
			]
		}
	],
	"nodes":[
		{
			"mesh":0,
			"name":"SacoDeCima"
		},
		{
			"mesh":1,
			"name":"SacoDobrado"
		}
	],
	"materials":[
		{
			"doubleSided":true,
			"name":"Saco",
			"pbrMetallicRoughness":{
				"baseColorTexture":{
					"index":0
				},
				"metallicFactor":0
			}
		}
	],
	"meshes":[
		{
			"name":"Cube.001",
			"primitives":[
				{
					"attributes":{
						"POSITION":0,
						"NORMAL":1,
						"TEXCOORD_0":2,
						"TEXCOORD_1":3
					},
					"indices":4,
					"material":0
				}
			]
		},
		{
			"name":"Cube",
			"primitives":[
				{
					"attributes":{
						"POSITION":5,
						"NORMAL":6,
						"TEXCOORD_0":7,
						"TEXCOORD_1":8
					},
					"indices":4,
					"material":0
				}
			]
		}
	],
	"textures":[
		{
			"sampler":0,
			"source":0
		}
	],
	"images":[
		{
			"mimeType":"image/png",
			"name":"saco.png",
			"uri":"tex/saco.png"
		}
	],
	"accessors":[
		{
			"bufferView":0,
			"componentType":5126,
			"count":125,
			"max":[
				0.14270639419555664,
				0.07867103815078735,
				0.10608857125043869
			],
			"min":[
				-0.14271068572998047,
				0.05179094895720482,
				-0.14571508765220642
			],
			"type":"VEC3"
		},
		{
			"bufferView":1,
			"componentType":5126,
			"count":125,
			"type":"VEC3"
		},
		{
			"bufferView":2,
			"componentType":5126,
			"count":125,
			"type":"VEC2"
		},
		{
			"bufferView":3,
			"componentType":5126,
			"count":125,
			"type":"VEC2"
		},
		{
			"bufferView":4,
			"componentType":5123,
			"count":576,
			"type":"SCALAR"
		},
		{
			"bufferView":5,
			"componentType":5126,
			"count":125,
			"max":[
				0.20720309019088745,
				0.048077698796987534,
				0.1608506590127945
			],
			"min":[
				-0.16481047868728638,
				0.007277806289494038,
				-0.16083982586860657
			],
			"type":"VEC3"
		},
		{
			"bufferView":6,
			"componentType":5126,
			"count":125,
			"type":"VEC3"
		},
		{
			"bufferView":7,
			"componentType":5126,
			"count":125,
			"type":"VEC2"
		},
		{
			"bufferView":8,
			"componentType":5126,
			"count":125,
			"type":"VEC2"
		}
	],
	"bufferViews":[
		{
			"buffer":0,
			"byteLength":1500,
			"byteOffset":0,
			"target":34962
		},
		{
			"buffer":0,
			"byteLength":1500,
			"byteOffset":1500,
			"target":34962
		},
		{
			"buffer":0,
			"byteLength":1000,
			"byteOffset":3000,
			"target":34962
		},
		{
			"buffer":0,
			"byteLength":1000,
			"byteOffset":4000,
			"target":34962
		},
		{
			"buffer":0,
			"byteLength":1152,
			"byteOffset":5000,
			"target":34963
		},
		{
			"buffer":0,
			"byteLength":1500,
			"byteOffset":6152,
			"target":34962
		},
		{
			"buffer":0,
			"byteLength":1500,
			"byteOffset":7652,
			"target":34962
		},
		{
			"buffer":0,
			"byteLength":1000,
			"byteOffset":9152,
			"target":34962
		},
		{
			"buffer":0,
			"byteLength":1000,
			"byteOffset":10152,
			"target":34962
		}
	],
	"samplers":[
		{
			"magFilter":9729,
			"minFilter":9987
		}
	],
	"buffers":[
		{
			"byteLength":11152,
			"uri":"assento.bin"
		}
	]
}
