{
	"asset":{
		"generator":"Khronos glTF Blender I/O v5.2.40",
		"version":"2.0"
	},
	"scene":0,
	"scenes":[
		{
			"name":"Scene",
			"nodes":[
				0,
				1,
				2,
				3,
				4,
				5,
				6,
				7,
				8,
				9,
				10,
				11,
				12,
				13,
				14,
				15,
				16
			]
		}
	],
	"nodes":[
		{
			"mesh":0,
			"name":"AmarraFundo"
		},
		{
			"mesh":1,
			"name":"AmarraRua"
		},
		{
			"mesh":2,
			"name":"CordaDaPonta"
		},
		{
			"mesh":3,
			"name":"EstacaFundo"
		},
		{
			"mesh":4,
			"name":"Forquilha"
		},
		{
			"mesh":5,
			"name":"Gancho0"
		},
		{
			"mesh":6,
			"name":"Gancho1"
		},
		{
			"mesh":7,
			"name":"Gancho2"
		},
		{
			"mesh":8,
			"name":"GanchoAlto"
		},
		{
			"mesh":9,
			"name":"GanchoLanterna"
		},
		{
			"mesh":10,
			"name":"Laco0"
		},
		{
			"mesh":11,
			"name":"Laco1"
		},
		{
			"mesh":12,
			"name":"Laco2"
		},
		{
			"mesh":13,
			"name":"Laco3"
		},
		{
			"mesh":14,
			"name":"Lona"
		},
		{
			"mesh":15,
			"name":"Travessa"
		},
		{
			"mesh":16,
			"name":"Varao"
		}
	],
	"materials":[
		{
			"doubleSided":true,
			"name":"Corda",
			"pbrMetallicRoughness":{
				"baseColorTexture":{
					"index":0
				},
				"metallicFactor":0
			}
		},
		{
			"doubleSided":true,
			"name":"Madeira",
			"pbrMetallicRoughness":{
				"baseColorTexture":{
					"index":1
				},
				"metallicFactor":0
			}
		},
		{
			"doubleSided":true,
			"name":"Ferro",
			"pbrMetallicRoughness":{
				"baseColorFactor":[
					0.11999999731779099,
					0.10999999940395355,
					0.10000000149011612,
					1
				],
				"metallicFactor":0,
				"roughnessFactor":0.6000000238418579
			}
		},
		{
			"doubleSided":true,
			"name":"Lona",
			"pbrMetallicRoughness":{
				"baseColorTexture":{
					"index":2
				},
				"metallicFactor":0
			}
		}
	],
	"meshes":[
		{
			"name":"AmarraFundo",
			"primitives":[
				{
					"attributes":{
						"POSITION":0,
						"NORMAL":1,
						"TEXCOORD_0":2
					},
					"indices":3,
					"material":0
				}
			]
		},
		{
			"name":"AmarraRua",
			"primitives":[
				{
					"attributes":{
						"POSITION":4,
						"NORMAL":5,
						"TEXCOORD_0":6
					},
					"indices":3,
					"material":0
				}
			]
		},
		{
			"name":"CordaDaPonta",
			"primitives":[
				{
					"attributes":{
						"POSITION":7,
						"NORMAL":8,
						"TEXCOORD_0":9
					},
					"indices":10,
					"material":0
				}
			]
		},
		{
			"name":"EstacaFundo",
			"primitives":[
				{
					"attributes":{
						"POSITION":11,
						"NORMAL":12,
						"TEXCOORD_0":13
					},
					"indices":14,
					"material":1
				}
			]
		},
		{
			"name":"Forquilha",
			"primitives":[
				{
					"attributes":{
						"POSITION":15,
						"NORMAL":16,
						"TEXCOORD_0":17
					},
					"indices":18,
					"material":1
				}
			]
		},
		{
			"name":"Gancho0",
			"primitives":[
				{
					"attributes":{
						"POSITION":19,
						"NORMAL":20,
						"TEXCOORD_0":21
					},
					"indices":22,
					"material":2
				}
			]
		},
		{
			"name":"Gancho1",
			"primitives":[
				{
					"attributes":{
						"POSITION":23,
						"NORMAL":24,
						"TEXCOORD_0":25
					},
					"indices":22,
					"material":2
				}
			]
		},
		{
			"name":"Gancho2",
			"primitives":[
				{
					"attributes":{
						"POSITION":26,
						"NORMAL":27,
						"TEXCOORD_0":28
					},
					"indices":22,
					"material":2
				}
			]
		},
		{
			"name":"GanchoAlto",
			"primitives":[
				{
					"attributes":{
						"POSITION":29,
						"NORMAL":30,
						"TEXCOORD_0":31
					},
					"indices":22,
					"material":2
				}
			]
		},
		{
			"name":"GanchoLanterna",
			"primitives":[
				{
					"attributes":{
						"POSITION":32,
						"NORMAL":33,
						"TEXCOORD_0":34
					},
					"indices":22,
					"material":2
				}
			]
		},
		{
			"name":"Laco0",
			"primitives":[
				{
					"attributes":{
						"POSITION":35,
						"NORMAL":36,
						"TEXCOORD_0":37
					},
					"indices":38,
					"material":0
				}
			]
		},
		{
			"name":"Laco1",
			"primitives":[
				{
					"attributes":{
						"POSITION":39,
						"NORMAL":40,
						"TEXCOORD_0":41
					},
					"indices":38,
					"material":0
				}
			]
		},
		{
			"name":"Laco2",
			"primitives":[
				{
					"attributes":{
						"POSITION":42,
						"NORMAL":43,
						"TEXCOORD_0":44
					},
					"indices":38,
					"material":0
				}
			]
		},
		{
			"name":"Laco3",
			"primitives":[
				{
					"attributes":{
						"POSITION":45,
						"NORMAL":46,
						"TEXCOORD_0":47
					},
					"indices":38,
					"material":0
				}
			]
		},
		{
			"name":"Lona",
			"primitives":[
				{
					"attributes":{
						"POSITION":48,
						"NORMAL":49,
						"TEXCOORD_0":50
					},
					"indices":51,
					"material":3
				}
			]
		},
		{
			"name":"Travessa",
			"primitives":[
				{
					"attributes":{
						"POSITION":52,
						"NORMAL":53,
						"TEXCOORD_0":54
					},
					"indices":55,
					"material":1
				}
			]
		},
		{
			"name":"Varao",
			"primitives":[
				{
					"attributes":{
						"POSITION":56,
						"NORMAL":57,
						"TEXCOORD_0":58
					},
					"indices":55,
					"material":1
				}
			]
		}
	],
	"textures":[
		{
			"sampler":0,
			"source":0
		},
		{
			"sampler":0,
			"source":1
		},
		{
			"sampler":0,
			"source":2
		}
	],
	"images":[
		{
			"mimeType":"image/png",
			"name":"corda.png",
			"uri":"tex/corda.png"
		},
		{
			"mimeType":"image/png",
			"name":"madeira.png",
			"uri":"tex/madeira.png"
		},
		{
			"mimeType":"image/png",
			"name":"lona.png",
			"uri":"tex/lona.png"
		}
	],
	"accessors":[
		{
			"bufferView":0,
			"componentType":5126,
			"count":342,
			"max":[
				0.2955622673034668,
				1.9134539365768433,
				2.79560923576355
			],
			"min":[
				0.20242998003959656,
				1.8065460920333862,
				2.6857528686523438
			],
			"type":"VEC3"
		},
		{
			"bufferView":1,
			"componentType":5126,
			"count":342,
			"type":"VEC3"
		},
		{
			"bufferView":2,
			"componentType":5126,
			"count":342,
			"type":"VEC2"
		},
		{
			"bufferView":3,
			"componentType":5123,
			"count":1680,
			"type":"SCALAR"
		},
		{
			"bufferView":4,
			"componentType":5126,
			"count":342,
			"max":[
				2.4455623626708984,
				1.9134539365768433,
				2.8256092071533203
			],
			"min":[
				2.3524298667907715,
				1.8065460920333862,
				2.7157528400421143
			],
			"type":"VEC3"
		},
		{
			"bufferView":5,
			"componentType":5126,
			"count":342,
			"type":"VEC3"
		},
		{
			"bufferView":6,
			"componentType":5126,
			"count":342,
			"type":"VEC2"
		},
		{
			"bufferView":7,
			"componentType":5126,
			"count":23,
			"max":[
				2.4489989280700684,
				2.7873921394348145,
				2.7726144790649414
			],
			"min":[
				2.391000986099243,
				1.8526326417922974,
				0.05746685713529587
			],
			"type":"VEC3"
		},
		{
			"bufferView":8,
			"componentType":5126,
			"count":23,
			"type":"VEC3"
		},
		{
			"bufferView":9,
			"componentType":5126,
			"count":23,
			"type":"VEC2"
		},
		{
			"bufferView":10,
			"componentType":5123,
			"count":108,
			"type":"SCALAR"
		},
		{
			"bufferView":11,
			"componentType":5126,
			"count":58,
			"max":[
				0.2832030653953552,
				1.9808225631713867,
				2.8045408725738525
			],
			"min":[
				0.15750227868556976,
				-0.05082666128873825,
				2.6951651573181152
			],
			"type":"VEC3"
		},
		{
			"bufferView":12,
			"componentType":5126,
			"count":58,
			"type":"VEC3"
		},
		{
			"bufferView":13,
			"componentType":5126,
			"count":58,
			"type":"VEC2"
		},
		{
			"bufferView":14,
			"componentType":5123,
			"count":294,
			"type":"SCALAR"
		},
		{
			"bufferView":15,
			"componentType":5126,
			"count":58,
			"max":[
				0.3241150975227356,
				2.004626989364624,
				2.7952229976654053
			],
			"min":[
				0.2312479317188263,
				1.7915704250335693,
				2.7108616828918457
			],
			"type":"VEC3"
		},
		{
			"bufferView":16,
			"componentType":5126,
			"count":58,
			"type":"VEC3"
		},
		{
			"bufferView":17,
			"componentType":5126,
			"count":58,
			"type":"VEC2"
		},
		{
			"bufferView":18,
			"componentType":5123,
			"count":294,
			"type":"SCALAR"
		},
		{
			"bufferView":19,
			"componentType":5126,
			"count":20,
			"max":[
				0.30647215247154236,
				2.46075701713562,
				0.13757069408893585
			],
			"min":[
				0.29200002551078796,
				2.352391481399536,
				-0.019999999552965164
			],
			"type":"VEC3"
		},
		{
			"bufferView":20,
			"componentType":5126,
			"count":20,
			"type":"VEC3"
		},
		{
			"bufferView":21,
			"componentType":5126,
			"count":20,
			"type":"VEC2"
		},
		{
			"bufferView":22,
			"componentType":5123,
			"count":90,
			"type":"SCALAR"
		},
		{
			"bufferView":23,
			"componentType":5126,
			"count":20,
			"max":[
				1.256472110748291,
				2.46075701713562,
				0.13757069408893585
			],
			"min":[
				1.2419999837875366,
				2.352391481399536,
				-0.019999999552965164
			],
			"type":"VEC3"
		},
		{
			"bufferView":24,
			"componentType":5126,
			"count":20,
			"type":"VEC3"
		},
		{
			"bufferView":25,
			"componentType":5126,
			"count":20,
			"type":"VEC2"
		},
		{
			"bufferView":26,
			"componentType":5126,
			"count":20,
			"max":[
				2.256472110748291,
				2.46075701713562,
				0.13757069408893585
			],
			"min":[
				2.242000102996826,
				2.352391481399536,
				-0.019999999552965164
			],
			"type":"VEC3"
		},
		{
			"bufferView":27,
			"componentType":5126,
			"count":20,
			"type":"VEC3"
		},
		{
			"bufferView":28,
			"componentType":5126,
			"count":20,
			"type":"VEC2"
		},
		{
			"bufferView":29,
			"componentType":5126,
			"count":20,
			"max":[
				2.4064722061157227,
				2.8308401107788086,
				0.11756191402673721
			],
			"min":[
				2.392000198364258,
				2.732391595840454,
				-0.019999999552965164
			],
			"type":"VEC3"
		},
		{
			"bufferView":30,
			"componentType":5126,
			"count":20,
			"type":"VEC3"
		},
		{
			"bufferView":31,
			"componentType":5126,
			"count":20,
			"type":"VEC2"
		},
		{
			"bufferView":32,
			"componentType":5126,
			"count":20,
			"max":[
				1.2345651388168335,
				1.7999999523162842,
				2.75600004196167
			],
			"min":[
				1.194293737411499,
				1.656576156616211,
				2.745145797729492
			],
			"type":"VEC3"
		},
		{
			"bufferView":33,
			"componentType":5126,
			"count":20,
			"type":"VEC3"
		},
		{
			"bufferView":34,
			"componentType":5126,
			"count":20,
			"type":"VEC2"
		},
		{
			"bufferView":35,
			"componentType":5126,
			"count":216,
			"max":[
				0.025764867663383484,
				2.4647035598754883,
				0.12584823369979858
			],
			"min":[
				-0.0256150234490633,
				2.3752965927124023,
				0.03517968952655792
			],
			"type":"VEC3"
		},
		{
			"bufferView":36,
			"componentType":5126,
			"count":216,
			"type":"VEC3"
		},
		{
			"bufferView":37,
			"componentType":5126,
			"count":216,
			"type":"VEC2"
		},
		{
			"bufferView":38,
			"componentType":5123,
			"count":1050,
			"type":"SCALAR"
		},
		{
			"bufferView":39,
			"componentType":5126,
			"count":216,
			"max":[
				0.8257648348808289,
				2.4647035598754883,
				0.12584823369979858
			],
			"min":[
				0.7743850350379944,
				2.3752965927124023,
				0.03517968952655792
			],
			"type":"VEC3"
		},
		{
			"bufferView":40,
			"componentType":5126,
			"count":216,
			"type":"VEC3"
		},
		{
			"bufferView":41,
			"componentType":5126,
			"count":216,
			"type":"VEC2"
		},
		{
			"bufferView":42,
			"componentType":5126,
			"count":216,
			"max":[
				1.6257648468017578,
				2.4647035598754883,
				0.12584823369979858
			],
			"min":[
				1.5743850469589233,
				2.3752965927124023,
				0.03517968952655792
			],
			"type":"VEC3"
		},
		{
			"bufferView":43,
			"componentType":5126,
			"count":216,
			"type":"VEC3"
		},
		{
			"bufferView":44,
			"componentType":5126,
			"count":216,
			"type":"VEC2"
		},
		{
			"bufferView":45,
			"componentType":5126,
			"count":216,
			"max":[
				2.4757649898529053,
				2.4647035598754883,
				0.12584823369979858
			],
			"min":[
				2.4243850708007812,
				2.3752965927124023,
				0.03517959639430046
			],
			"type":"VEC3"
		},
		{
			"bufferView":46,
			"componentType":5126,
			"count":216,
			"type":"VEC3"
		},
		{
			"bufferView":47,
			"componentType":5126,
			"count":216,
			"type":"VEC2"
		},
		{
			"bufferView":48,
			"componentType":5126,
			"count":13780,
			"max":[
				2.5206308364868164,
				2.4599740505218506,
				2.8129870891571045
			],
			"min":[
				-0.04071766510605812,
				1.5405058860778809,
				0.0588015541434288
			],
			"type":"VEC3"
		},
		{
			"bufferView":49,
			"componentType":5126,
			"count":13780,
			"type":"VEC3"
		},
		{
			"bufferView":50,
			"componentType":5126,
			"count":13780,
			"type":"VEC2"
		},
		{
			"bufferView":51,
			"componentType":5123,
			"count":80304,
			"type":"SCALAR"
		},
		{
			"bufferView":52,
			"componentType":5126,
			"count":90,
			"max":[
				2.4816954135894775,
				1.901180624961853,
				2.801974058151245
			],
			"min":[
				-0.021226944401860237,
				1.8061405420303345,
				2.6897027492523193
			],
			"type":"VEC3"
		},
		{
			"bufferView":53,
			"componentType":5126,
			"count":90,
			"type":"VEC3"
		},
		{
			"bufferView":54,
			"componentType":5126,
			"count":90,
			"type":"VEC2"
		},
		{
			"bufferView":55,
			"componentType":5123,
			"count":462,
			"type":"SCALAR"
		},
		{
			"bufferView":56,
			"componentType":5126,
			"count":90,
			"max":[
				2.4508719444274902,
				2.451197624206543,
				0.11348298192024231
			],
			"min":[
				0.019717896357178688,
				2.366285562515259,
				0.04281749576330185
			],
			"type":"VEC3"
		},
		{
			"bufferView":57,
			"componentType":5126,
			"count":90,
			"type":"VEC3"
		},
		{
			"bufferView":58,
			"componentType":5126,
			"count":90,
			"type":"VEC2"
		}
	],
	"bufferViews":[
		{
			"buffer":0,
			"byteLength":4104,
			"byteOffset":0,
			"target":34962
		},
		{
			"buffer":0,
			"byteLength":4104,
			"byteOffset":4104,
			"target":34962
		},
		{
			"buffer":0,
			"byteLength":2736,
			"byteOffset":8208,
			"target":34962
		},
		{
			"buffer":0,
			"byteLength":3360,
			"byteOffset":10944,
			"target":34963
		},
		{
			"buffer":0,
			"byteLength":4104,
			"byteOffset":14304,
			"target":34962
		},
		{
			"buffer":0,
			"byteLength":4104,
			"byteOffset":18408,
			"target":34962
		},
		{
			"buffer":0,
			"byteLength":2736,
			"byteOffset":22512,
			"target":34962
		},
		{
			"buffer":0,
			"byteLength":276,
			"byteOffset":25248,
			"target":34962
		},
		{
			"buffer":0,
			"byteLength":276,
			"byteOffset":25524,
			"target":34962
		},
		{
			"buffer":0,
			"byteLength":184,
			"byteOffset":25800,
			"target":34962
		},
		{
			"buffer":0,
			"byteLength":216,
			"byteOffset":25984,
			"target":34963
		},
		{
			"buffer":0,
			"byteLength":696,
			"byteOffset":26200,
			"target":34962
		},
		{
			"buffer":0,
			"byteLength":696,
			"byteOffset":26896,
			"target":34962
		},
		{
			"buffer":0,
			"byteLength":464,
			"byteOffset":27592,
			"target":34962
		},
		{
			"buffer":0,
			"byteLength":588,
			"byteOffset":28056,
			"target":34963
		},
		{
			"buffer":0,
			"byteLength":696,
			"byteOffset":28644,
			"target":34962
		},
		{
			"buffer":0,
			"byteLength":696,
			"byteOffset":29340,
			"target":34962
		},
		{
			"buffer":0,
			"byteLength":464,
			"byteOffset":30036,
			"target":34962
		},
		{
			"buffer":0,
			"byteLength":588,
			"byteOffset":30500,
			"target":34963
		},
		{
			"buffer":0,
			"byteLength":240,
			"byteOffset":31088,
			"target":34962
		},
		{
			"buffer":0,
			"byteLength":240,
			"byteOffset":31328,
			"target":34962
		},
		{
			"buffer":0,
			"byteLength":160,
			"byteOffset":31568,
			"target":34962
		},
		{
			"buffer":0,
			"byteLength":180,
			"byteOffset":31728,
			"target":34963
		},
		{
			"buffer":0,
			"byteLength":240,
			"byteOffset":31908,
			"target":34962
		},
		{
			"buffer":0,
			"byteLength":240,
			"byteOffset":32148,
			"target":34962
		},
		{
			"buffer":0,
			"byteLength":160,
			"byteOffset":32388,
			"target":34962
		},
		{
			"buffer":0,
			"byteLength":240,
			"byteOffset":32548,
			"target":34962
		},
		{
			"buffer":0,
			"byteLength":240,
			"byteOffset":32788,
			"target":34962
		},
		{
			"buffer":0,
			"byteLength":160,
			"byteOffset":33028,
			"target":34962
		},
		{
			"buffer":0,
			"byteLength":240,
			"byteOffset":33188,
			"target":34962
		},
		{
			"buffer":0,
			"byteLength":240,
			"byteOffset":33428,
			"target":34962
		},
		{
			"buffer":0,
			"byteLength":160,
			"byteOffset":33668,
			"target":34962
		},
		{
			"buffer":0,
			"byteLength":240,
			"byteOffset":33828,
			"target":34962
		},
		{
			"buffer":0,
			"byteLength":240,
			"byteOffset":34068,
			"target":34962
		},
		{
			"buffer":0,
			"byteLength":160,
			"byteOffset":34308,
			"target":34962
		},
		{
			"buffer":0,
			"byteLength":2592,
			"byteOffset":34468,
			"target":34962
		},
		{
			"buffer":0,
			"byteLength":2592,
			"byteOffset":37060,
			"target":34962
		},
		{
			"buffer":0,
			"byteLength":1728,
			"byteOffset":39652,
			"target":34962
		},
		{
			"buffer":0,
			"byteLength":2100,
			"byteOffset":41380,
			"target":34963
		},
		{
			"buffer":0,
			"byteLength":2592,
			"byteOffset":43480,
			"target":34962
		},
		{
			"buffer":0,
			"byteLength":2592,
			"byteOffset":46072,
			"target":34962
		},
		{
			"buffer":0,
			"byteLength":1728,
			"byteOffset":48664,
			"target":34962
		},
		{
			"buffer":0,
			"byteLength":2592,
			"byteOffset":50392,
			"target":34962
		},
		{
			"buffer":0,
			"byteLength":2592,
			"byteOffset":52984,
			"target":34962
		},
		{
			"buffer":0,
			"byteLength":1728,
			"byteOffset":55576,
			"target":34962
		},
		{
			"buffer":0,
			"byteLength":2592,
			"byteOffset":57304,
			"target":34962
		},
		{
			"buffer":0,
			"byteLength":2592,
			"byteOffset":59896,
			"target":34962
		},
		{
			"buffer":0,
			"byteLength":1728,
			"byteOffset":62488,
			"target":34962
		},
		{
			"buffer":0,
			"byteLength":165360,
			"byteOffset":64216,
			"target":34962
		},
		{
			"buffer":0,
			"byteLength":165360,
			"byteOffset":229576,
			"target":34962
		},
		{
			"buffer":0,
			"byteLength":110240,
			"byteOffset":394936,
			"target":34962
		},
		{
			"buffer":0,
			"byteLength":160608,
			"byteOffset":505176,
			"target":34963
		},
		{
			"buffer":0,
			"byteLength":1080,
			"byteOffset":665784,
			"target":34962
		},
		{
			"buffer":0,
			"byteLength":1080,
			"byteOffset":666864,
			"target":34962
		},
		{
			"buffer":0,
			"byteLength":720,
			"byteOffset":667944,
			"target":34962
		},
		{
			"buffer":0,
			"byteLength":924,
			"byteOffset":668664,
			"target":34963
		},
		{
			"buffer":0,
			"byteLength":1080,
			"byteOffset":669588,
			"target":34962
		},
		{
			"buffer":0,
			"byteLength":1080,
			"byteOffset":670668,
			"target":34962
		},
		{
			"buffer":0,
			"byteLength":720,
			"byteOffset":671748,
			"target":34962
		}
	],
	"samplers":[
		{
			"magFilter":9729,
			"minFilter":9987
		}
	],
	"buffers":[
		{
			"byteLength":672468,
			"uri":"barraco.bin"
		}
	]
}
