{
	"asset":{
		"generator":"Khronos glTF Blender I/O v5.2.40",
		"version":"2.0"
	},
	"scene":0,
	"scenes":[
		{
			"name":"Scene",
			"nodes":[
				0,
				1,
				2,
				3,
				4,
				5,
				6
			]
		}
	],
	"nodes":[
		{
			"mesh":0,
			"name":"Colcha"
		},
		{
			"mesh":1,
			"name":"Colchao"
		},
		{
			"mesh":2,
			"name":"DobraColcha",
			"scale":[
				1,
				0.550000011920929,
				1
			]
		},
		{
			"mesh":3,
			"name":"Palha"
		},
		{
			"mesh":4,
			"name":"Papelao"
		},
		{
			"mesh":5,
			"name":"PapelaoCabeceira"
		},
		{
			"mesh":6,
			"name":"Travesseiro"
		}
	],
	"materials":[
		{
			"doubleSided":true,
			"name":"Colcha",
			"pbrMetallicRoughness":{
				"baseColorTexture":{
					"index":0
				},
				"metallicFactor":0
			}
		},
		{
			"doubleSided":true,
			"name":"Saco",
			"pbrMetallicRoughness":{
				"baseColorTexture":{
					"index":1
				},
				"metallicFactor":0
			}
		},
		{
			"doubleSided":true,
			"name":"Palha",
			"pbrMetallicRoughness":{
				"baseColorTexture":{
					"index":2
				},
				"metallicFactor":0
			}
		},
		{
			"doubleSided":true,
			"name":"Papelao",
			"pbrMetallicRoughness":{
				"baseColorTexture":{
					"index":3
				},
				"metallicFactor":0
			}
		}
	],
	"meshes":[
		{
			"name":"Colcha",
			"primitives":[
				{
					"attributes":{
						"POSITION":0,
						"NORMAL":1,
						"TEXCOORD_0":2
					},
					"indices":3,
					"material":0
				}
			]
		},
		{
			"name":"Cube",
			"primitives":[
				{
					"attributes":{
						"POSITION":4,
						"NORMAL":5,
						"TEXCOORD_0":6,
						"TEXCOORD_1":7
					},
					"indices":8,
					"material":1
				}
			]
		},
		{
			"name":"DobraColcha",
			"primitives":[
				{
					"attributes":{
						"POSITION":9,
						"NORMAL":10,
						"TEXCOORD_0":11
					},
					"indices":12,
					"material":0
				}
			]
		},
		{
			"name":"Palha",
			"primitives":[
				{
					"attributes":{
						"POSITION":13,
						"NORMAL":14,
						"TEXCOORD_0":15
					},
					"indices":16,
					"material":2
				}
			]
		},
		{
			"name":"Papelao",
			"primitives":[
				{
					"attributes":{
						"POSITION":17,
						"NORMAL":18,
						"TEXCOORD_0":19
					},
					"indices":20,
					"material":3
				}
			]
		},
		{
			"name":"PapelaoCabeceira",
			"primitives":[
				{
					"attributes":{
						"POSITION":21,
						"NORMAL":22,
						"TEXCOORD_0":23
					},
					"indices":20,
					"material":3
				}
			]
		},
		{
			"name":"Cube.001",
			"primitives":[
				{
					"attributes":{
						"POSITION":24,
						"NORMAL":25,
						"TEXCOORD_0":26,
						"TEXCOORD_1":27
					},
					"indices":8,
					"material":1
				}
			]
		}
	],
	"textures":[
		{
			"sampler":0,
			"source":0
		},
		{
			"sampler":0,
			"source":1
		},
		{
			"sampler":0,
			"source":2
		},
		{
			"sampler":0,
			"source":3
		}
	],
	"images":[
		{
			"mimeType":"image/png",
			"name":"colcha.png",
			"uri":"tex/colcha.png"
		},
		{
			"mimeType":"image/png",
			"name":"saco.png",
			"uri":"tex/saco.png"
		},
		{
			"mimeType":"image/png",
			"name":"palha.png",
			"uri":"tex/palha.png"
		},
		{
			"mimeType":"image/png",
			"name":"papelao.png",
			"uri":"tex/papelao.png"
		}
	],
	"accessors":[
		{
			"bufferView":0,
			"componentType":5126,
			"count":6726,
			"max":[
				0.6939197778701782,
				0.11147260665893555,
				0.4805452227592468
			],
			"min":[
				-0.10065147280693054,
				-0.004200577735900879,
				-0.48065176606178284
			],
			"type":"VEC3"
		},
		{
			"bufferView":1,
			"componentType":5126,
			"count":6726,
			"type":"VEC3"
		},
		{
			"bufferView":2,
			"componentType":5126,
			"count":6726,
			"type":"VEC2"
		},
		{
			"bufferView":3,
			"componentType":5123,
			"count":38784,
			"type":"SCALAR"
		},
		{
			"bufferView":4,
			"componentType":5126,
			"count":125,
			"max":[
				0.5890683531761169,
				0.07993289828300476,
				0.2741208076477051
			],
			"min":[
				-0.3503263294696808,
				0.017535937950015068,
				-0.27745673060417175
			],
			"type":"VEC3"
		},
		{
			"bufferView":5,
			"componentType":5126,
			"count":125,
			"type":"VEC3"
		},
		{
			"bufferView":6,
			"componentType":5126,
			"count":125,
			"type":"VEC2"
		},
		{
			"bufferView":7,
			"componentType":5126,
			"count":125,
			"type":"VEC2"
		},
		{
			"bufferView":8,
			"componentType":5123,
			"count":576,
			"type":"SCALAR"
		},
		{
			"bufferView":9,
			"componentType":5126,
			"count":112,
			"max":[
				-0.07932676374912262,
				0.12166577577590942,
				0.4399999976158142
			],
			"min":[
				-0.12200000137090683,
				0.07833422720432281,
				-0.4399999976158142
			],
			"type":"VEC3"
		},
		{
			"bufferView":10,
			"componentType":5126,
			"count":112,
			"type":"VEC3"
		},
		{
			"bufferView":11,
			"componentType":5126,
			"count":112,
			"type":"VEC2"
		},
		{
			"bufferView":12,
			"componentType":5123,
			"count":594,
			"type":"SCALAR"
		},
		{
			"bufferView":13,
			"componentType":5126,
			"count":520,
			"max":[
				0.8208422660827637,
				0.062993124127388,
				0.6241686940193176
			],
			"min":[
				-0.5962467193603516,
				0.00037744222208857536,
				-0.6323918700218201
			],
			"type":"VEC3"
		},
		{
			"bufferView":14,
			"componentType":5126,
			"count":520,
			"type":"VEC3"
		},
		{
			"bufferView":15,
			"componentType":5126,
			"count":520,
			"type":"VEC2"
		},
		{
			"bufferView":16,
			"componentType":5123,
			"count":780,
			"type":"SCALAR"
		},
		{
			"bufferView":17,
			"componentType":5126,
			"count":442,
			"max":[
				0.7662351727485657,
				0.023787662386894226,
				0.49252039194107056
			],
			"min":[
				-0.5662636160850525,
				-0.0057234372943639755,
				-0.49249643087387085
			],
			"type":"VEC3"
		},
		{
			"bufferView":18,
			"componentType":5126,
			"count":442,
			"type":"VEC3"
		},
		{
			"bufferView":19,
			"componentType":5126,
			"count":442,
			"type":"VEC2"
		},
		{
			"bufferView":20,
			"componentType":5123,
			"count":2640,
			"type":"SCALAR"
		},
		{
			"bufferView":21,
			"componentType":5126,
			"count":442,
			"max":[
				0.017002468928694725,
				0.03004954382777214,
				0.18546263873577118
			],
			"min":[
				-0.6772903800010681,
				0.00422553950920701,
				-0.4256221354007721
			],
			"type":"VEC3"
		},
		{
			"bufferView":22,
			"componentType":5126,
			"count":442,
			"type":"VEC3"
		},
		{
			"bufferView":23,
			"componentType":5126,
			"count":442,
			"type":"VEC2"
		},
		{
			"bufferView":24,
			"componentType":5126,
			"count":125,
			"max":[
				-0.21513578295707703,
				0.12193837761878967,
				0.17183716595172882
			],
			"min":[
				-0.46562445163726807,
				0.07740241289138794,
				-0.1303594708442688
			],
			"type":"VEC3"
		},
		{
			"bufferView":25,
			"componentType":5126,
			"count":125,
			"type":"VEC3"
		},
		{
			"bufferView":26,
			"componentType":5126,
			"count":125,
			"type":"VEC2"
		},
		{
			"bufferView":27,
			"componentType":5126,
			"count":125,
			"type":"VEC2"
		}
	],
	"bufferViews":[
		{
			"buffer":0,
			"byteLength":80712,
			"byteOffset":0,
			"target":34962
		},
		{
			"buffer":0,
			"byteLength":80712,
			"byteOffset":80712,
			"target":34962
		},
		{
			"buffer":0,
			"byteLength":53808,
			"byteOffset":161424,
			"target":34962
		},
		{
			"buffer":0,
			"byteLength":77568,
			"byteOffset":215232,
			"target":34963
		},
		{
			"buffer":0,
			"byteLength":1500,
			"byteOffset":292800,
			"target":34962
		},
		{
			"buffer":0,
			"byteLength":1500,
			"byteOffset":294300,
			"target":34962
		},
		{
			"buffer":0,
			"byteLength":1000,
			"byteOffset":295800,
			"target":34962
		},
		{
			"buffer":0,
			"byteLength":1000,
			"byteOffset":296800,
			"target":34962
		},
		{
			"buffer":0,
			"byteLength":1152,
			"byteOffset":297800,
			"target":34963
		},
		{
			"buffer":0,
			"byteLength":1344,
			"byteOffset":298952,
			"target":34962
		},
		{
			"buffer":0,
			"byteLength":1344,
			"byteOffset":300296,
			"target":34962
		},
		{
			"buffer":0,
			"byteLength":896,
			"byteOffset":301640,
			"target":34962
		},
		{
			"buffer":0,
			"byteLength":1188,
			"byteOffset":302536,
			"target":34963
		},
		{
			"buffer":0,
			"byteLength":6240,
			"byteOffset":303724,
			"target":34962
		},
		{
			"buffer":0,
			"byteLength":6240,
			"byteOffset":309964,
			"target":34962
		},
		{
			"buffer":0,
			"byteLength":4160,
			"byteOffset":316204,
			"target":34962
		},
		{
			"buffer":0,
			"byteLength":1560,
			"byteOffset":320364,
			"target":34963
		},
		{
			"buffer":0,
			"byteLength":5304,
			"byteOffset":321924,
			"target":34962
		},
		{
			"buffer":0,
			"byteLength":5304,
			"byteOffset":327228,
			"target":34962
		},
		{
			"buffer":0,
			"byteLength":3536,
			"byteOffset":332532,
			"target":34962
		},
		{
			"buffer":0,
			"byteLength":5280,
			"byteOffset":336068,
			"target":34963
		},
		{
			"buffer":0,
			"byteLength":5304,
			"byteOffset":341348,
			"target":34962
		},
		{
			"buffer":0,
			"byteLength":5304,
			"byteOffset":346652,
			"target":34962
		},
		{
			"buffer":0,
			"byteLength":3536,
			"byteOffset":351956,
			"target":34962
		},
		{
			"buffer":0,
			"byteLength":1500,
			"byteOffset":355492,
			"target":34962
		},
		{
			"buffer":0,
			"byteLength":1500,
			"byteOffset":356992,
			"target":34962
		},
		{
			"buffer":0,
			"byteLength":1000,
			"byteOffset":358492,
			"target":34962
		},
		{
			"buffer":0,
			"byteLength":1000,
			"byteOffset":359492,
			"target":34962
		}
	],
	"samplers":[
		{
			"magFilter":9729,
			"minFilter":9987
		}
	],
	"buffers":[
		{
			"byteLength":360492,
			"uri":"cama_tico.bin"
		}
	]
}
