{
	"asset":{
		"generator":"Khronos glTF Blender I/O v5.2.40",
		"version":"2.0"
	},
	"scene":0,
	"scenes":[
		{
			"name":"Scene",
			"nodes":[
				0,
				1,
				2,
				3
			]
		}
	],
	"nodes":[
		{
			"mesh":0,
			"name":"Manta",
			"rotation":[
				0,
				0.06975648552179337,
				0,
				0.9975640773773193
			]
		},
		{
			"mesh":1,
			"name":"Papelao"
		},
		{
			"mesh":2,
			"name":"PontaDobrada"
		},
		{
			"mesh":3,
			"name":"Rolinho"
		}
	],
	"materials":[
		{
			"doubleSided":true,
			"name":"Colcha",
			"pbrMetallicRoughness":{
				"baseColorTexture":{
					"index":0
				},
				"metallicFactor":0
			}
		},
		{
			"doubleSided":true,
			"name":"Papelao",
			"pbrMetallicRoughness":{
				"baseColorTexture":{
					"index":1
				},
				"metallicFactor":0
			}
		},
		{
			"doubleSided":true,
			"name":"Panos",
			"pbrMetallicRoughness":{
				"baseColorTexture":{
					"index":2
				},
				"metallicFactor":0
			}
		}
	],
	"meshes":[
		{
			"name":"Cube",
			"primitives":[
				{
					"attributes":{
						"POSITION":0,
						"NORMAL":1,
						"TEXCOORD_0":2,
						"TEXCOORD_1":3
					},
					"indices":4,
					"material":0
				}
			]
		},
		{
			"name":"Papelao",
			"primitives":[
				{
					"attributes":{
						"POSITION":5,
						"NORMAL":6,
						"TEXCOORD_0":7
					},
					"indices":8,
					"material":1
				}
			]
		},
		{
			"name":"Cube.001",
			"primitives":[
				{
					"attributes":{
						"POSITION":9,
						"NORMAL":10,
						"TEXCOORD_0":11,
						"TEXCOORD_1":12
					},
					"indices":4,
					"material":0
				}
			]
		},
		{
			"name":"Rolinho",
			"primitives":[
				{
					"attributes":{
						"POSITION":13,
						"NORMAL":14,
						"TEXCOORD_0":15
					},
					"indices":16,
					"material":2
				}
			]
		}
	],
	"textures":[
		{
			"sampler":0,
			"source":0
		},
		{
			"sampler":0,
			"source":1
		},
		{
			"sampler":0,
			"source":2
		}
	],
	"images":[
		{
			"mimeType":"image/png",
			"name":"colcha.png",
			"uri":"tex/colcha.png"
		},
		{
			"mimeType":"image/png",
			"name":"papelao.png",
			"uri":"tex/papelao.png"
		},
		{
			"mimeType":"image/png",
			"name":"panos.png",
			"uri":"tex/panos.png"
		}
	],
	"accessors":[
		{
			"bufferView":0,
			"componentType":5126,
			"count":125,
			"max":[
				0.2790287733078003,
				0.05269210785627365,
				0.18348991870880127
			],
			"min":[
				-0.24059997498989105,
				0.012586694210767746,
				-0.18394364416599274
			],
			"type":"VEC3"
		},
		{
			"bufferView":1,
			"componentType":5126,
			"count":125,
			"type":"VEC3"
		},
		{
			"bufferView":2,
			"componentType":5126,
			"count":125,
			"type":"VEC2"
		},
		{
			"bufferView":3,
			"componentType":5126,
			"count":125,
			"type":"VEC2"
		},
		{
			"bufferView":4,
			"componentType":5123,
			"count":576,
			"type":"SCALAR"
		},
		{
			"bufferView":5,
			"componentType":5126,
			"count":442,
			"max":[
				0.485294908285141,
				0.019963949918746948,
				0.3929029405117035
			],
			"min":[
				-0.48531532287597656,
				-0.0059456294402480125,
				-0.39284414052963257
			],
			"type":"VEC3"
		},
		{
			"bufferView":6,
			"componentType":5126,
			"count":442,
			"type":"VEC3"
		},
		{
			"bufferView":7,
			"componentType":5126,
			"count":442,
			"type":"VEC2"
		},
		{
			"bufferView":8,
			"componentType":5123,
			"count":2640,
			"type":"SCALAR"
		},
		{
			"bufferView":9,
			"componentType":5126,
			"count":125,
			"max":[
				0.31275084614753723,
				0.07085791230201721,
				0.2035486102104187
			],
			"min":[
				0.1274133324623108,
				0.05357708781957626,
				0.0371842198073864
			],
			"type":"VEC3"
		},
		{
			"bufferView":10,
			"componentType":5126,
			"count":125,
			"type":"VEC3"
		},
		{
			"bufferView":11,
			"componentType":5126,
			"count":125,
			"type":"VEC2"
		},
		{
			"bufferView":12,
			"componentType":5126,
			"count":125,
			"type":"VEC2"
		},
		{
			"bufferView":13,
			"componentType":5126,
			"count":46,
			"max":[
				-0.2549999952316284,
				0.11779755353927612,
				0.17000000178813934
			],
			"min":[
				-0.3450000286102295,
				0.03220245614647865,
				-0.17000000178813934
			],
			"type":"VEC3"
		},
		{
			"bufferView":14,
			"componentType":5126,
			"count":46,
			"type":"VEC3"
		},
		{
			"bufferView":15,
			"componentType":5126,
			"count":46,
			"type":"VEC2"
		},
		{
			"bufferView":16,
			"componentType":5123,
			"count":240,
			"type":"SCALAR"
		}
	],
	"bufferViews":[
		{
			"buffer":0,
			"byteLength":1500,
			"byteOffset":0,
			"target":34962
		},
		{
			"buffer":0,
			"byteLength":1500,
			"byteOffset":1500,
			"target":34962
		},
		{
			"buffer":0,
			"byteLength":1000,
			"byteOffset":3000,
			"target":34962
		},
		{
			"buffer":0,
			"byteLength":1000,
			"byteOffset":4000,
			"target":34962
		},
		{
			"buffer":0,
			"byteLength":1152,
			"byteOffset":5000,
			"target":34963
		},
		{
			"buffer":0,
			"byteLength":5304,
			"byteOffset":6152,
			"target":34962
		},
		{
			"buffer":0,
			"byteLength":5304,
			"byteOffset":11456,
			"target":34962
		},
		{
			"buffer":0,
			"byteLength":3536,
			"byteOffset":16760,
			"target":34962
		},
		{
			"buffer":0,
			"byteLength":5280,
			"byteOffset":20296,
			"target":34963
		},
		{
			"buffer":0,
			"byteLength":1500,
			"byteOffset":25576,
			"target":34962
		},
		{
			"buffer":0,
			"byteLength":1500,
			"byteOffset":27076,
			"target":34962
		},
		{
			"buffer":0,
			"byteLength":1000,
			"byteOffset":28576,
			"target":34962
		},
		{
			"buffer":0,
			"byteLength":1000,
			"byteOffset":29576,
			"target":34962
		},
		{
			"buffer":0,
			"byteLength":552,
			"byteOffset":30576,
			"target":34962
		},
		{
			"buffer":0,
			"byteLength":552,
			"byteOffset":31128,
			"target":34962
		},
		{
			"buffer":0,
			"byteLength":368,
			"byteOffset":31680,
			"target":34962
		},
		{
			"buffer":0,
			"byteLength":480,
			"byteOffset":32048,
			"target":34963
		}
	],
	"samplers":[
		{
			"magFilter":9729,
			"minFilter":9987
		}
	],
	"buffers":[
		{
			"byteLength":32528,
			"uri":"cama_tika.bin"
		}
	]
}
