{
	"asset":{
		"generator":"Khronos glTF Blender I/O v5.2.40",
		"version":"2.0"
	},
	"scene":0,
	"scenes":[
		{
			"name":"Scene",
			"nodes":[
				0,
				1,
				2,
				3,
				4,
				5,
				6,
				7,
				8,
				9,
				10,
				11,
				12,
				13,
				14
			]
		}
	],
	"nodes":[
		{
			"mesh":0,
			"name":"Cinza"
		},
		{
			"mesh":1,
			"name":"Pedra0",
			"rotation":[
				0,
				0.023061148822307587,
				0,
				0.9997341632843018
			],
			"translation":[
				0.23209162056446075,
				0.025271063670516014,
				-0.010713145136833191
			]
		},
		{
			"mesh":2,
			"name":"Pedra1",
			"rotation":[
				0,
				-0.289841890335083,
				0,
				0.9570745229721069
			],
			"translation":[
				0.20125891268253326,
				0.025736523792147636,
				0.13420769572257996
			]
		},
		{
			"mesh":3,
			"name":"Pedra2",
			"rotation":[
				0,
				-0.5568376779556274,
				0,
				0.8306213617324829
			],
			"translation":[
				0.08611427992582321,
				0.025138158351182938,
				0.2097051441669464
			]
		},
		{
			"mesh":4,
			"name":"Pedra3",
			"rotation":[
				0,
				-0.8290147185325623,
				0,
				0.5592267513275146
			],
			"translation":[
				-0.08239801228046417,
				0.023658106103539467,
				0.20399023592472076
			]
		},
		{
			"mesh":5,
			"name":"Pedra4",
			"rotation":[
				0,
				-0.9515151381492615,
				0,
				0.3076019287109375
			],
			"translation":[
				-0.18784260749816895,
				0.023402752354741096,
				0.13562361896038055
			]
		},
		{
			"mesh":6,
			"name":"Pedra5",
			"rotation":[
				0,
				-0.9997174143791199,
				0,
				0.023773295804858208
			],
			"translation":[
				-0.2153712511062622,
				0.020650526508688927,
				0.010248837992548943
			]
		},
		{
			"mesh":7,
			"name":"Pedra6",
			"rotation":[
				0,
				0.9590708017349243,
				0,
				0.28316637873649597
			],
			"translation":[
				-0.20423059165477753,
				0.026117514818906784,
				-0.1321154087781906
			]
		},
		{
			"mesh":8,
			"name":"Pedra7",
			"rotation":[
				0,
				0.8293939828872681,
				0,
				0.5586641430854797
			],
			"translation":[
				-0.0901494100689888,
				0.023812852799892426,
				-0.22231099009513855
			]
		},
		{
			"mesh":9,
			"name":"Pedra8",
			"rotation":[
				0,
				0.6052739024162292,
				0,
				0.7960174083709717
			],
			"translation":[
				0.06142636016011238,
				0.025430692359805107,
				-0.2214527726173401
			]
		},
		{
			"mesh":10,
			"name":"Pedra9",
			"rotation":[
				0,
				0.3617428243160248,
				0,
				0.9322779178619385
			],
			"translation":[
				0.17109280824661255,
				0.019574809819459915,
				-0.15630875527858734
			]
		},
		{
			"mesh":11,
			"name":"Toco0"
		},
		{
			"mesh":12,
			"name":"Toco1"
		},
		{
			"mesh":13,
			"name":"Toco2"
		},
		{
			"mesh":14,
			"name":"Toco3"
		}
	],
	"materials":[
		{
			"doubleSided":true,
			"name":"Cinza",
			"pbrMetallicRoughness":{
				"baseColorTexture":{
					"index":0
				},
				"metallicFactor":0
			}
		},
		{
			"doubleSided":true,
			"name":"PedraSuja",
			"pbrMetallicRoughness":{
				"baseColorFactor":[
					0.10000000149011612,
					0.09200000017881393,
					0.08500000089406967,
					1
				],
				"metallicFactor":0
			}
		},
		{
			"doubleSided":true,
			"name":"Carvao",
			"pbrMetallicRoughness":{
				"baseColorFactor":[
					0.05000000074505806,
					0.04500000178813934,
					0.03999999910593033,
					1
				],
				"metallicFactor":0
			}
		}
	],
	"meshes":[
		{
			"name":"Cinza",
			"primitives":[
				{
					"attributes":{
						"POSITION":0,
						"NORMAL":1,
						"TEXCOORD_0":2
					},
					"indices":3,
					"material":0
				}
			]
		},
		{
			"name":"Icosphere",
			"primitives":[
				{
					"attributes":{
						"POSITION":4,
						"NORMAL":5,
						"TEXCOORD_0":6
					},
					"indices":7,
					"material":1
				}
			]
		},
		{
			"name":"Icosphere.001",
			"primitives":[
				{
					"attributes":{
						"POSITION":8,
						"NORMAL":9,
						"TEXCOORD_0":10
					},
					"indices":7,
					"material":1
				}
			]
		},
		{
			"name":"Icosphere.002",
			"primitives":[
				{
					"attributes":{
						"POSITION":11,
						"NORMAL":12,
						"TEXCOORD_0":13
					},
					"indices":7,
					"material":1
				}
			]
		},
		{
			"name":"Icosphere.003",
			"primitives":[
				{
					"attributes":{
						"POSITION":14,
						"NORMAL":15,
						"TEXCOORD_0":16
					},
					"indices":7,
					"material":1
				}
			]
		},
		{
			"name":"Icosphere.004",
			"primitives":[
				{
					"attributes":{
						"POSITION":17,
						"NORMAL":18,
						"TEXCOORD_0":19
					},
					"indices":7,
					"material":1
				}
			]
		},
		{
			"name":"Icosphere.005",
			"primitives":[
				{
					"attributes":{
						"POSITION":20,
						"NORMAL":21,
						"TEXCOORD_0":22
					},
					"indices":7,
					"material":1
				}
			]
		},
		{
			"name":"Icosphere.006",
			"primitives":[
				{
					"attributes":{
						"POSITION":23,
						"NORMAL":24,
						"TEXCOORD_0":25
					},
					"indices":7,
					"material":1
				}
			]
		},
		{
			"name":"Icosphere.007",
			"primitives":[
				{
					"attributes":{
						"POSITION":26,
						"NORMAL":27,
						"TEXCOORD_0":28
					},
					"indices":7,
					"material":1
				}
			]
		},
		{
			"name":"Icosphere.008",
			"primitives":[
				{
					"attributes":{
						"POSITION":29,
						"NORMAL":30,
						"TEXCOORD_0":31
					},
					"indices":7,
					"material":1
				}
			]
		},
		{
			"name":"Icosphere.009",
			"primitives":[
				{
					"attributes":{
						"POSITION":32,
						"NORMAL":33,
						"TEXCOORD_0":34
					},
					"indices":7,
					"material":1
				}
			]
		},
		{
			"name":"Toco0",
			"primitives":[
				{
					"attributes":{
						"POSITION":35,
						"NORMAL":36,
						"TEXCOORD_0":37
					},
					"indices":38,
					"material":2
				}
			]
		},
		{
			"name":"Toco1",
			"primitives":[
				{
					"attributes":{
						"POSITION":39,
						"NORMAL":40,
						"TEXCOORD_0":41
					},
					"indices":38,
					"material":2
				}
			]
		},
		{
			"name":"Toco2",
			"primitives":[
				{
					"attributes":{
						"POSITION":42,
						"NORMAL":43,
						"TEXCOORD_0":44
					},
					"indices":38,
					"material":2
				}
			]
		},
		{
			"name":"Toco3",
			"primitives":[
				{
					"attributes":{
						"POSITION":45,
						"NORMAL":46,
						"TEXCOORD_0":47
					},
					"indices":38,
					"material":2
				}
			]
		}
	],
	"textures":[
		{
			"sampler":0,
			"source":0
		}
	],
	"images":[
		{
			"mimeType":"image/png",
			"name":"cinza.png",
			"uri":"tex/cinza.png"
		}
	],
	"accessors":[
		{
			"bufferView":0,
			"componentType":5126,
			"count":175,
			"max":[
				0.17000000178813934,
				0.025511257350444794,
				0.17000000178813934
			],
			"min":[
				-0.17000000178813934,
				0.002689050743356347,
				-0.17000000178813934
			],
			"type":"VEC3"
		},
		{
			"bufferView":1,
			"componentType":5126,
			"count":175,
			"type":"VEC3"
		},
		{
			"bufferView":2,
			"componentType":5126,
			"count":175,
			"type":"VEC2"
		},
		{
			"bufferView":3,
			"componentType":5123,
			"count":864,
			"type":"SCALAR"
		},
		{
			"bufferView":4,
			"componentType":5126,
			"count":205,
			"max":[
				0.054868586361408234,
				0.04651268571615219,
				0.050168558955192566
			],
			"min":[
				-0.05328745022416115,
				-0.0440736748278141,
				-0.05266108363866806
			],
			"type":"VEC3"
		},
		{
			"bufferView":5,
			"componentType":5126,
			"count":205,
			"type":"VEC3"
		},
		{
			"bufferView":6,
			"componentType":5126,
			"count":205,
			"type":"VEC2"
		},
		{
			"bufferView":7,
			"componentType":5123,
			"count":960,
			"type":"SCALAR"
		},
		{
			"bufferView":8,
			"componentType":5126,
			"count":205,
			"max":[
				0.06363091617822647,
				0.04528706520795822,
				0.053391579538583755
			],
			"min":[
				-0.06226179376244545,
				-0.044026728719472885,
				-0.05093882605433464
			],
			"type":"VEC3"
		},
		{
			"bufferView":9,
			"componentType":5126,
			"count":205,
			"type":"VEC3"
		},
		{
			"bufferView":10,
			"componentType":5126,
			"count":205,
			"type":"VEC2"
		},
		{
			"bufferView":11,
			"componentType":5126,
			"count":205,
			"max":[
				0.051903195679187775,
				0.04467543587088585,
				0.03964194282889366
			],
			"min":[
				-0.05179968476295471,
				-0.04456137865781784,
				-0.04225248843431473
			],
			"type":"VEC3"
		},
		{
			"bufferView":12,
			"componentType":5126,
			"count":205,
			"type":"VEC3"
		},
		{
			"bufferView":13,
			"componentType":5126,
			"count":205,
			"type":"VEC2"
		},
		{
			"bufferView":14,
			"componentType":5126,
			"count":205,
			"max":[
				0.05577249079942703,
				0.0444972850382328,
				0.052705317735672
			],
			"min":[
				-0.054162077605724335,
				-0.04489433392882347,
				-0.051635097712278366
			],
			"type":"VEC3"
		},
		{
			"bufferView":15,
			"componentType":5126,
			"count":205,
			"type":"VEC3"
		},
		{
			"bufferView":16,
			"componentType":5126,
			"count":205,
			"type":"VEC2"
		},
		{
			"bufferView":17,
			"componentType":5126,
			"count":205,
			"max":[
				0.061034999787807465,
				0.04128137230873108,
				0.04084455966949463
			],
			"min":[
				-0.06036784127354622,
				-0.039198536425828934,
				-0.04407183825969696
			],
			"type":"VEC3"
		},
		{
			"bufferView":18,
			"componentType":5126,
			"count":205,
			"type":"VEC3"
		},
		{
			"bufferView":19,
			"componentType":5126,
			"count":205,
			"type":"VEC2"
		},
		{
			"bufferView":20,
			"componentType":5126,
			"count":205,
			"max":[
				0.05779194086790085,
				0.03767918050289154,
				0.04686989635229111
			],
			"min":[
				-0.05808037891983986,
				-0.03876035287976265,
				-0.04460468888282776
			],
			"type":"VEC3"
		},
		{
			"bufferView":21,
			"componentType":5126,
			"count":205,
			"type":"VEC3"
		},
		{
			"bufferView":22,
			"componentType":5126,
			"count":205,
			"type":"VEC2"
		},
		{
			"bufferView":23,
			"componentType":5126,
			"count":205,
			"max":[
				0.047963518649339676,
				0.04670510068535805,
				0.05590658634901047
			],
			"min":[
				-0.05281788483262062,
				-0.0432736799120903,
				-0.05322479084134102
			],
			"type":"VEC3"
		},
		{
			"bufferView":24,
			"componentType":5126,
			"count":205,
			"type":"VEC3"
		},
		{
			"bufferView":25,
			"componentType":5126,
			"count":205,
			"type":"VEC2"
		},
		{
			"bufferView":26,
			"componentType":5126,
			"count":205,
			"max":[
				0.04831288009881973,
				0.04395962879061699,
				0.045541442930698395
			],
			"min":[
				-0.05251532420516014,
				-0.03999176248908043,
				-0.043559879064559937
			],
			"type":"VEC3"
		},
		{
			"bufferView":27,
			"componentType":5126,
			"count":205,
			"type":"VEC3"
		},
		{
			"bufferView":28,
			"componentType":5126,
			"count":205,
			"type":"VEC2"
		},
		{
			"bufferView":29,
			"componentType":5126,
			"count":205,
			"max":[
				0.057777855545282364,
				0.04493296146392822,
				0.05279979109764099
			],
			"min":[
				-0.05611417442560196,
				-0.04468925669789314,
				-0.05174742639064789
			],
			"type":"VEC3"
		},
		{
			"bufferView":30,
			"componentType":5126,
			"count":205,
			"type":"VEC3"
		},
		{
			"bufferView":31,
			"componentType":5126,
			"count":205,
			"type":"VEC2"
		},
		{
			"bufferView":32,
			"componentType":5126,
			"count":205,
			"max":[
				0.04731828346848488,
				0.034450970590114594,
				0.04827286675572395
			],
			"min":[
				-0.04706398770213127,
				-0.03474795073270798,
				-0.05027006193995476
			],
			"type":"VEC3"
		},
		{
			"bufferView":33,
			"componentType":5126,
			"count":205,
			"type":"VEC3"
		},
		{
			"bufferView":34,
			"componentType":5126,
			"count":205,
			"type":"VEC2"
		},
		{
			"bufferView":35,
			"componentType":5126,
			"count":58,
			"max":[
				0.20158499479293823,
				0.0714244619011879,
				0.008632145822048187
			],
			"min":[
				0.016607191413640976,
				0.008691739290952682,
				-0.04405757039785385
			],
			"type":"VEC3"
		},
		{
			"bufferView":36,
			"componentType":5126,
			"count":58,
			"type":"VEC3"
		},
		{
			"bufferView":37,
			"componentType":5126,
			"count":58,
			"type":"VEC2"
		},
		{
			"bufferView":38,
			"componentType":5123,
			"count":294,
			"type":"SCALAR"
		},
		{
			"bufferView":39,
			"componentType":5126,
			"count":58,
			"max":[
				0.017966253682971,
				0.07115398347377777,
				0.20317105948925018
			],
			"min":[
				-0.02657805196940899,
				0.008791834115982056,
				0.016027841717004776
			],
			"type":"VEC3"
		},
		{
			"bufferView":40,
			"componentType":5126,
			"count":58,
			"type":"VEC3"
		},
		{
			"bufferView":41,
			"componentType":5126,
			"count":58,
			"type":"VEC2"
		},
		{
			"bufferView":42,
			"componentType":5126,
			"count":58,
			"max":[
				-0.017068028450012207,
				0.07249897718429565,
				0.006076083052903414
			],
			"min":[
				-0.1951626092195511,
				0.008605187758803368,
				-0.0768444836139679
			],
			"type":"VEC3"
		},
		{
			"bufferView":43,
			"componentType":5126,
			"count":58,
			"type":"VEC3"
		},
		{
			"bufferView":44,
			"componentType":5126,
			"count":58,
			"type":"VEC2"
		},
		{
			"bufferView":45,
			"componentType":5126,
			"count":58,
			"max":[
				0.0533088855445385,
				0.07123970985412598,
				-0.01650811731815338
			],
			"min":[
				-0.010983245447278023,
				0.00920487567782402,
				-0.2025417685508728
			],
			"type":"VEC3"
		},
		{
			"bufferView":46,
			"componentType":5126,
			"count":58,
			"type":"VEC3"
		},
		{
			"bufferView":47,
			"componentType":5126,
			"count":58,
			"type":"VEC2"
		}
	],
	"bufferViews":[
		{
			"buffer":0,
			"byteLength":2100,
			"byteOffset":0,
			"target":34962
		},
		{
			"buffer":0,
			"byteLength":2100,
			"byteOffset":2100,
			"target":34962
		},
		{
			"buffer":0,
			"byteLength":1400,
			"byteOffset":4200,
			"target":34962
		},
		{
			"buffer":0,
			"byteLength":1728,
			"byteOffset":5600,
			"target":34963
		},
		{
			"buffer":0,
			"byteLength":2460,
			"byteOffset":7328,
			"target":34962
		},
		{
			"buffer":0,
			"byteLength":2460,
			"byteOffset":9788,
			"target":34962
		},
		{
			"buffer":0,
			"byteLength":1640,
			"byteOffset":12248,
			"target":34962
		},
		{
			"buffer":0,
			"byteLength":1920,
			"byteOffset":13888,
			"target":34963
		},
		{
			"buffer":0,
			"byteLength":2460,
			"byteOffset":15808,
			"target":34962
		},
		{
			"buffer":0,
			"byteLength":2460,
			"byteOffset":18268,
			"target":34962
		},
		{
			"buffer":0,
			"byteLength":1640,
			"byteOffset":20728,
			"target":34962
		},
		{
			"buffer":0,
			"byteLength":2460,
			"byteOffset":22368,
			"target":34962
		},
		{
			"buffer":0,
			"byteLength":2460,
			"byteOffset":24828,
			"target":34962
		},
		{
			"buffer":0,
			"byteLength":1640,
			"byteOffset":27288,
			"target":34962
		},
		{
			"buffer":0,
			"byteLength":2460,
			"byteOffset":28928,
			"target":34962
		},
		{
			"buffer":0,
			"byteLength":2460,
			"byteOffset":31388,
			"target":34962
		},
		{
			"buffer":0,
			"byteLength":1640,
			"byteOffset":33848,
			"target":34962
		},
		{
			"buffer":0,
			"byteLength":2460,
			"byteOffset":35488,
			"target":34962
		},
		{
			"buffer":0,
			"byteLength":2460,
			"byteOffset":37948,
			"target":34962
		},
		{
			"buffer":0,
			"byteLength":1640,
			"byteOffset":40408,
			"target":34962
		},
		{
			"buffer":0,
			"byteLength":2460,
			"byteOffset":42048,
			"target":34962
		},
		{
			"buffer":0,
			"byteLength":2460,
			"byteOffset":44508,
			"target":34962
		},
		{
			"buffer":0,
			"byteLength":1640,
			"byteOffset":46968,
			"target":34962
		},
		{
			"buffer":0,
			"byteLength":2460,
			"byteOffset":48608,
			"target":34962
		},
		{
			"buffer":0,
			"byteLength":2460,
			"byteOffset":51068,
			"target":34962
		},
		{
			"buffer":0,
			"byteLength":1640,
			"byteOffset":53528,
			"target":34962
		},
		{
			"buffer":0,
			"byteLength":2460,
			"byteOffset":55168,
			"target":34962
		},
		{
			"buffer":0,
			"byteLength":2460,
			"byteOffset":57628,
			"target":34962
		},
		{
			"buffer":0,
			"byteLength":1640,
			"byteOffset":60088,
			"target":34962
		},
		{
			"buffer":0,
			"byteLength":2460,
			"byteOffset":61728,
			"target":34962
		},
		{
			"buffer":0,
			"byteLength":2460,
			"byteOffset":64188,
			"target":34962
		},
		{
			"buffer":0,
			"byteLength":1640,
			"byteOffset":66648,
			"target":34962
		},
		{
			"buffer":0,
			"byteLength":2460,
			"byteOffset":68288,
			"target":34962
		},
		{
			"buffer":0,
			"byteLength":2460,
			"byteOffset":70748,
			"target":34962
		},
		{
			"buffer":0,
			"byteLength":1640,
			"byteOffset":73208,
			"target":34962
		},
		{
			"buffer":0,
			"byteLength":696,
			"byteOffset":74848,
			"target":34962
		},
		{
			"buffer":0,
			"byteLength":696,
			"byteOffset":75544,
			"target":34962
		},
		{
			"buffer":0,
			"byteLength":464,
			"byteOffset":76240,
			"target":34962
		},
		{
			"buffer":0,
			"byteLength":588,
			"byteOffset":76704,
			"target":34963
		},
		{
			"buffer":0,
			"byteLength":696,
			"byteOffset":77292,
			"target":34962
		},
		{
			"buffer":0,
			"byteLength":696,
			"byteOffset":77988,
			"target":34962
		},
		{
			"buffer":0,
			"byteLength":464,
			"byteOffset":78684,
			"target":34962
		},
		{
			"buffer":0,
			"byteLength":696,
			"byteOffset":79148,
			"target":34962
		},
		{
			"buffer":0,
			"byteLength":696,
			"byteOffset":79844,
			"target":34962
		},
		{
			"buffer":0,
			"byteLength":464,
			"byteOffset":80540,
			"target":34962
		},
		{
			"buffer":0,
			"byteLength":696,
			"byteOffset":81004,
			"target":34962
		},
		{
			"buffer":0,
			"byteLength":696,
			"byteOffset":81700,
			"target":34962
		},
		{
			"buffer":0,
			"byteLength":464,
			"byteOffset":82396,
			"target":34962
		}
	],
	"samplers":[
		{
			"magFilter":9729,
			"minFilter":9987
		}
	],
	"buffers":[
		{
			"byteLength":82860,
			"uri":"cinzas.bin"
		}
	]
}
