{
	"asset":{
		"generator":"Khronos glTF Blender I/O v5.2.40",
		"version":"2.0"
	},
	"scene":0,
	"scenes":[
		{
			"name":"Scene",
			"nodes":[
				0,
				1,
				2,
				3,
				4,
				5,
				6,
				7,
				8,
				9
			]
		}
	],
	"nodes":[
		{
			"mesh":0,
			"name":"Amarra"
		},
		{
			"mesh":1,
			"name":"Graveto0"
		},
		{
			"mesh":2,
			"name":"Graveto1"
		},
		{
			"mesh":3,
			"name":"Graveto2"
		},
		{
			"mesh":4,
			"name":"Graveto3"
		},
		{
			"mesh":5,
			"name":"Graveto4"
		},
		{
			"mesh":6,
			"name":"Graveto5"
		},
		{
			"mesh":7,
			"name":"Graveto6"
		},
		{
			"mesh":8,
			"name":"Graveto7"
		},
		{
			"mesh":9,
			"name":"Graveto8"
		}
	],
	"materials":[
		{
			"doubleSided":true,
			"name":"Corda",
			"pbrMetallicRoughness":{
				"baseColorTexture":{
					"index":0
				},
				"metallicFactor":0
			}
		},
		{
			"doubleSided":true,
			"name":"Madeira",
			"pbrMetallicRoughness":{
				"baseColorTexture":{
					"index":1
				},
				"metallicFactor":0
			}
		}
	],
	"meshes":[
		{
			"name":"Amarra",
			"primitives":[
				{
					"attributes":{
						"POSITION":0,
						"NORMAL":1,
						"TEXCOORD_0":2
					},
					"indices":3,
					"material":0
				}
			]
		},
		{
			"name":"Graveto0",
			"primitives":[
				{
					"attributes":{
						"POSITION":4,
						"NORMAL":5,
						"TEXCOORD_0":6
					},
					"indices":7,
					"material":1
				}
			]
		},
		{
			"name":"Graveto1",
			"primitives":[
				{
					"attributes":{
						"POSITION":8,
						"NORMAL":9,
						"TEXCOORD_0":10
					},
					"indices":7,
					"material":1
				}
			]
		},
		{
			"name":"Graveto2",
			"primitives":[
				{
					"attributes":{
						"POSITION":11,
						"NORMAL":12,
						"TEXCOORD_0":13
					},
					"indices":7,
					"material":1
				}
			]
		},
		{
			"name":"Graveto3",
			"primitives":[
				{
					"attributes":{
						"POSITION":14,
						"NORMAL":15,
						"TEXCOORD_0":16
					},
					"indices":7,
					"material":1
				}
			]
		},
		{
			"name":"Graveto4",
			"primitives":[
				{
					"attributes":{
						"POSITION":17,
						"NORMAL":18,
						"TEXCOORD_0":19
					},
					"indices":7,
					"material":1
				}
			]
		},
		{
			"name":"Graveto5",
			"primitives":[
				{
					"attributes":{
						"POSITION":20,
						"NORMAL":21,
						"TEXCOORD_0":22
					},
					"indices":7,
					"material":1
				}
			]
		},
		{
			"name":"Graveto6",
			"primitives":[
				{
					"attributes":{
						"POSITION":23,
						"NORMAL":24,
						"TEXCOORD_0":25
					},
					"indices":7,
					"material":1
				}
			]
		},
		{
			"name":"Graveto7",
			"primitives":[
				{
					"attributes":{
						"POSITION":26,
						"NORMAL":27,
						"TEXCOORD_0":28
					},
					"indices":7,
					"material":1
				}
			]
		},
		{
			"name":"Graveto8",
			"primitives":[
				{
					"attributes":{
						"POSITION":29,
						"NORMAL":30,
						"TEXCOORD_0":31
					},
					"indices":7,
					"material":1
				}
			]
		}
	],
	"textures":[
		{
			"sampler":0,
			"source":0
		},
		{
			"sampler":0,
			"source":1
		}
	],
	"images":[
		{
			"mimeType":"image/png",
			"name":"corda.png",
			"uri":"tex/corda.png"
		},
		{
			"mimeType":"image/png",
			"name":"madeira.png",
			"uri":"tex/madeira.png"
		}
	],
	"accessors":[
		{
			"bufferView":0,
			"componentType":5126,
			"count":258,
			"max":[
				0.3518666625022888,
				0.204349085688591,
				0.1676122397184372
			],
			"min":[
				0.28813332319259644,
				-0.06434907019138336,
				-0.10715698450803757
			],
			"type":"VEC3"
		},
		{
			"bufferView":1,
			"componentType":5126,
			"count":258,
			"type":"VEC3"
		},
		{
			"bufferView":2,
			"componentType":5126,
			"count":258,
			"type":"VEC2"
		},
		{
			"bufferView":3,
			"componentType":5123,
			"count":1260,
			"type":"SCALAR"
		},
		{
			"bufferView":4,
			"componentType":5126,
			"count":58,
			"max":[
				0.5117549896240234,
				0.06049656867980957,
				-0.0640859305858612
			],
			"min":[
				-0.050148431211709976,
				0.006502207368612289,
				-0.13425444066524506
			],
			"type":"VEC3"
		},
		{
			"bufferView":5,
			"componentType":5126,
			"count":58,
			"type":"VEC3"
		},
		{
			"bufferView":6,
			"componentType":5126,
			"count":58,
			"type":"VEC2"
		},
		{
			"bufferView":7,
			"componentType":5123,
			"count":294,
			"type":"SCALAR"
		},
		{
			"bufferView":8,
			"componentType":5126,
			"count":58,
			"max":[
				0.6784173846244812,
				0.07083624601364136,
				0.03533594310283661
			],
			"min":[
				0.04558975249528885,
				-0.0085629653185606,
				-0.06339137256145477
			],
			"type":"VEC3"
		},
		{
			"bufferView":9,
			"componentType":5126,
			"count":58,
			"type":"VEC3"
		},
		{
			"bufferView":10,
			"componentType":5126,
			"count":58,
			"type":"VEC2"
		},
		{
			"bufferView":11,
			"componentType":5126,
			"count":58,
			"max":[
				0.4844355881214142,
				0.0702226385474205,
				0.08592157810926437
			],
			"min":[
				-0.03882290795445442,
				0.00030433014035224915,
				-0.005469128489494324
			],
			"type":"VEC3"
		},
		{
			"bufferView":12,
			"componentType":5126,
			"count":58,
			"type":"VEC3"
		},
		{
			"bufferView":13,
			"componentType":5126,
			"count":58,
			"type":"VEC2"
		},
		{
			"bufferView":14,
			"componentType":5126,
			"count":58,
			"max":[
				0.6395297646522522,
				0.06665016710758209,
				0.1335315704345703
			],
			"min":[
				0.0030093006789684296,
				-0.0035304632037878036,
				0.03832046687602997
			],
			"type":"VEC3"
		},
		{
			"bufferView":15,
			"componentType":5126,
			"count":58,
			"type":"VEC3"
		},
		{
			"bufferView":16,
			"componentType":5126,
			"count":58,
			"type":"VEC2"
		},
		{
			"bufferView":17,
			"componentType":5126,
			"count":58,
			"max":[
				0.6592881679534912,
				0.12819123268127441,
				0.0019549839198589325
			],
			"min":[
				0.0019261850975453854,
				0.05228019505739212,
				-0.08671297132968903
			],
			"type":"VEC3"
		},
		{
			"bufferView":18,
			"componentType":5126,
			"count":58,
			"type":"VEC3"
		},
		{
			"bufferView":19,
			"componentType":5126,
			"count":58,
			"type":"VEC2"
		},
		{
			"bufferView":20,
			"componentType":5126,
			"count":58,
			"max":[
				0.5799915790557861,
				0.11714208871126175,
				0.05356547236442566
			],
			"min":[
				-0.02215384691953659,
				0.060403063893318176,
				-0.030455470085144043
			],
			"type":"VEC3"
		},
		{
			"bufferView":21,
			"componentType":5126,
			"count":58,
			"type":"VEC3"
		},
		{
			"bufferView":22,
			"componentType":5126,
			"count":58,
			"type":"VEC2"
		},
		{
			"bufferView":23,
			"componentType":5126,
			"count":58,
			"max":[
				0.5339879393577576,
				0.11589634418487549,
				0.08966957032680511
			],
			"min":[
				-0.020813580602407455,
				0.04838871955871582,
				0.019850432872772217
			],
			"type":"VEC3"
		},
		{
			"bufferView":24,
			"componentType":5126,
			"count":58,
			"type":"VEC3"
		},
		{
			"bufferView":25,
			"componentType":5126,
			"count":58,
			"type":"VEC2"
		},
		{
			"bufferView":26,
			"componentType":5126,
			"count":58,
			"max":[
				0.5735898613929749,
				0.12152469158172607,
				0.16573405265808105
			],
			"min":[
				-0.033914193511009216,
				0.047983136028051376,
				0.08609754592180252
			],
			"type":"VEC3"
		},
		{
			"bufferView":27,
			"componentType":5126,
			"count":58,
			"type":"VEC3"
		},
		{
			"bufferView":28,
			"componentType":5126,
			"count":58,
			"type":"VEC2"
		},
		{
			"bufferView":29,
			"componentType":5126,
			"count":58,
			"max":[
				0.5631911754608154,
				0.1668682098388672,
				0.006989798508584499
			],
			"min":[
				-0.04499204084277153,
				0.10607954114675522,
				-0.08134299516677856
			],
			"type":"VEC3"
		},
		{
			"bufferView":30,
			"componentType":5126,
			"count":58,
			"type":"VEC3"
		},
		{
			"bufferView":31,
			"componentType":5126,
			"count":58,
			"type":"VEC2"
		}
	],
	"bufferViews":[
		{
			"buffer":0,
			"byteLength":3096,
			"byteOffset":0,
			"target":34962
		},
		{
			"buffer":0,
			"byteLength":3096,
			"byteOffset":3096,
			"target":34962
		},
		{
			"buffer":0,
			"byteLength":2064,
			"byteOffset":6192,
			"target":34962
		},
		{
			"buffer":0,
			"byteLength":2520,
			"byteOffset":8256,
			"target":34963
		},
		{
			"buffer":0,
			"byteLength":696,
			"byteOffset":10776,
			"target":34962
		},
		{
			"buffer":0,
			"byteLength":696,
			"byteOffset":11472,
			"target":34962
		},
		{
			"buffer":0,
			"byteLength":464,
			"byteOffset":12168,
			"target":34962
		},
		{
			"buffer":0,
			"byteLength":588,
			"byteOffset":12632,
			"target":34963
		},
		{
			"buffer":0,
			"byteLength":696,
			"byteOffset":13220,
			"target":34962
		},
		{
			"buffer":0,
			"byteLength":696,
			"byteOffset":13916,
			"target":34962
		},
		{
			"buffer":0,
			"byteLength":464,
			"byteOffset":14612,
			"target":34962
		},
		{
			"buffer":0,
			"byteLength":696,
			"byteOffset":15076,
			"target":34962
		},
		{
			"buffer":0,
			"byteLength":696,
			"byteOffset":15772,
			"target":34962
		},
		{
			"buffer":0,
			"byteLength":464,
			"byteOffset":16468,
			"target":34962
		},
		{
			"buffer":0,
			"byteLength":696,
			"byteOffset":16932,
			"target":34962
		},
		{
			"buffer":0,
			"byteLength":696,
			"byteOffset":17628,
			"target":34962
		},
		{
			"buffer":0,
			"byteLength":464,
			"byteOffset":18324,
			"target":34962
		},
		{
			"buffer":0,
			"byteLength":696,
			"byteOffset":18788,
			"target":34962
		},
		{
			"buffer":0,
			"byteLength":696,
			"byteOffset":19484,
			"target":34962
		},
		{
			"buffer":0,
			"byteLength":464,
			"byteOffset":20180,
			"target":34962
		},
		{
			"buffer":0,
			"byteLength":696,
			"byteOffset":20644,
			"target":34962
		},
		{
			"buffer":0,
			"byteLength":696,
			"byteOffset":21340,
			"target":34962
		},
		{
			"buffer":0,
			"byteLength":464,
			"byteOffset":22036,
			"target":34962
		},
		{
			"buffer":0,
			"byteLength":696,
			"byteOffset":22500,
			"target":34962
		},
		{
			"buffer":0,
			"byteLength":696,
			"byteOffset":23196,
			"target":34962
		},
		{
			"buffer":0,
			"byteLength":464,
			"byteOffset":23892,
			"target":34962
		},
		{
			"buffer":0,
			"byteLength":696,
			"byteOffset":24356,
			"target":34962
		},
		{
			"buffer":0,
			"byteLength":696,
			"byteOffset":25052,
			"target":34962
		},
		{
			"buffer":0,
			"byteLength":464,
			"byteOffset":25748,
			"target":34962
		},
		{
			"buffer":0,
			"byteLength":696,
			"byteOffset":26212,
			"target":34962
		},
		{
			"buffer":0,
			"byteLength":696,
			"byteOffset":26908,
			"target":34962
		},
		{
			"buffer":0,
			"byteLength":464,
			"byteOffset":27604,
			"target":34962
		}
	],
	"samplers":[
		{
			"magFilter":9729,
			"minFilter":9987
		}
	],
	"buffers":[
		{
			"byteLength":28068,
			"uri":"lenha.bin"
		}
	]
}
