{
	"asset":{
		"generator":"Khronos glTF Blender I/O v5.2.40",
		"version":"2.0"
	},
	"scene":0,
	"scenes":[
		{
			"name":"Scene",
			"nodes":[
				0,
				1,
				2
			]
		}
	],
	"nodes":[
		{
			"mesh":0,
			"name":"Cavilha0"
		},
		{
			"mesh":1,
			"name":"Cavilha1"
		},
		{
			"mesh":2,
			"name":"Tabua"
		}
	],
	"materials":[
		{
			"doubleSided":true,
			"name":"Madeira",
			"pbrMetallicRoughness":{
				"baseColorTexture":{
					"index":0
				},
				"metallicFactor":0
			}
		}
	],
	"meshes":[
		{
			"name":"Cavilha0",
			"primitives":[
				{
					"attributes":{
						"POSITION":0,
						"NORMAL":1,
						"TEXCOORD_0":2
					},
					"indices":3,
					"material":0
				}
			]
		},
		{
			"name":"Cavilha1",
			"primitives":[
				{
					"attributes":{
						"POSITION":4,
						"NORMAL":5,
						"TEXCOORD_0":6
					},
					"indices":3,
					"material":0
				}
			]
		},
		{
			"name":"Cube",
			"primitives":[
				{
					"attributes":{
						"POSITION":7,
						"NORMAL":8,
						"TEXCOORD_0":9,
						"TEXCOORD_1":10
					},
					"indices":11,
					"material":0
				}
			]
		}
	],
	"textures":[
		{
			"sampler":0,
			"source":0
		}
	],
	"images":[
		{
			"mimeType":"image/png",
			"name":"madeira.png",
			"uri":"tex/madeira.png"
		}
	],
	"accessors":[
		{
			"bufferView":0,
			"componentType":5126,
			"count":58,
			"max":[
				0.17173795402050018,
				1.142548680305481,
				0.13933007419109344
			],
			"min":[
				-0.02104448527097702,
				1.1047492027282715,
				0.1028735339641571
			],
			"type":"VEC3"
		},
		{
			"bufferView":1,
			"componentType":5126,
			"count":58,
			"type":"VEC3"
		},
		{
			"bufferView":2,
			"componentType":5126,
			"count":58,
			"type":"VEC2"
		},
		{
			"bufferView":3,
			"componentType":5123,
			"count":294,
			"type":"SCALAR"
		},
		{
			"bufferView":4,
			"componentType":5126,
			"count":58,
			"max":[
				0.17138057947158813,
				1.1424263715744019,
				0.6985724568367004
			],
			"min":[
				-0.023092441260814667,
				1.1029103994369507,
				0.6604362726211548
			],
			"type":"VEC3"
		},
		{
			"bufferView":5,
			"componentType":5126,
			"count":58,
			"type":"VEC3"
		},
		{
			"bufferView":6,
			"componentType":5126,
			"count":58,
			"type":"VEC2"
		},
		{
			"bufferView":7,
			"componentType":5126,
			"count":24,
			"max":[
				0.20000000298023224,
				1.162500023841858,
				0.800000011920929
			],
			"min":[
				0,
				1.1374999284744263,
				0
			],
			"type":"VEC3"
		},
		{
			"bufferView":8,
			"componentType":5126,
			"count":24,
			"type":"VEC3"
		},
		{
			"bufferView":9,
			"componentType":5126,
			"count":24,
			"type":"VEC2"
		},
		{
			"bufferView":10,
			"componentType":5126,
			"count":24,
			"type":"VEC2"
		},
		{
			"bufferView":11,
			"componentType":5123,
			"count":36,
			"type":"SCALAR"
		}
	],
	"bufferViews":[
		{
			"buffer":0,
			"byteLength":696,
			"byteOffset":0,
			"target":34962
		},
		{
			"buffer":0,
			"byteLength":696,
			"byteOffset":696,
			"target":34962
		},
		{
			"buffer":0,
			"byteLength":464,
			"byteOffset":1392,
			"target":34962
		},
		{
			"buffer":0,
			"byteLength":588,
			"byteOffset":1856,
			"target":34963
		},
		{
			"buffer":0,
			"byteLength":696,
			"byteOffset":2444,
			"target":34962
		},
		{
			"buffer":0,
			"byteLength":696,
			"byteOffset":3140,
			"target":34962
		},
		{
			"buffer":0,
			"byteLength":464,
			"byteOffset":3836,
			"target":34962
		},
		{
			"buffer":0,
			"byteLength":288,
			"byteOffset":4300,
			"target":34962
		},
		{
			"buffer":0,
			"byteLength":288,
			"byteOffset":4588,
			"target":34962
		},
		{
			"buffer":0,
			"byteLength":192,
			"byteOffset":4876,
			"target":34962
		},
		{
			"buffer":0,
			"byteLength":192,
			"byteOffset":5068,
			"target":34962
		},
		{
			"buffer":0,
			"byteLength":72,
			"byteOffset":5260,
			"target":34963
		}
	],
	"samplers":[
		{
			"magFilter":9729,
			"minFilter":9987
		}
	],
	"buffers":[
		{
			"byteLength":5332,
			"uri":"prateleira.bin"
		}
	]
}
