{
	"asset":{
		"generator":"Khronos glTF Blender I/O v5.2.40",
		"version":"2.0"
	},
	"scene":0,
	"scenes":[
		{
			"name":"Scene",
			"nodes":[
				0,
				1,
				2,
				3,
				4,
				5,
				6,
				7,
				8,
				9,
				10,
				11
			]
		}
	],
	"nodes":[
		{
			"mesh":0,
			"name":"Corda"
		},
		{
			"mesh":1,
			"name":"Pano0"
		},
		{
			"mesh":2,
			"name":"Pano1"
		},
		{
			"mesh":3,
			"name":"Pano2"
		},
		{
			"mesh":4,
			"name":"Pregador0_0"
		},
		{
			"mesh":5,
			"name":"Pregador0_1"
		},
		{
			"mesh":6,
			"name":"Pregador1_0"
		},
		{
			"mesh":7,
			"name":"Pregador1_1"
		},
		{
			"mesh":8,
			"name":"Pregador2_0"
		},
		{
			"mesh":9,
			"name":"Pregador2_1"
		},
		{
			"mesh":10,
			"name":"Prego"
		},
		{
			"mesh":11,
			"name":"Toco"
		}
	],
	"materials":[
		{
			"doubleSided":true,
			"name":"Corda",
			"pbrMetallicRoughness":{
				"baseColorTexture":{
					"index":0
				},
				"metallicFactor":0
			}
		},
		{
			"doubleSided":true,
			"name":"Panos",
			"pbrMetallicRoughness":{
				"baseColorTexture":{
					"index":1
				},
				"metallicFactor":0
			}
		},
		{
			"doubleSided":true,
			"name":"Madeira",
			"pbrMetallicRoughness":{
				"baseColorTexture":{
					"index":2
				},
				"metallicFactor":0
			}
		},
		{
			"doubleSided":true,
			"name":"Ferro",
			"pbrMetallicRoughness":{
				"baseColorFactor":[
					0.11999999731779099,
					0.10999999940395355,
					0.10000000149011612,
					1
				],
				"metallicFactor":0,
				"roughnessFactor":0.6000000238418579
			}
		}
	],
	"meshes":[
		{
			"name":"Corda",
			"primitives":[
				{
					"attributes":{
						"POSITION":0,
						"NORMAL":1,
						"TEXCOORD_0":2
					},
					"indices":3,
					"material":0
				}
			]
		},
		{
			"name":"Pano0",
			"primitives":[
				{
					"attributes":{
						"POSITION":4,
						"NORMAL":5,
						"TEXCOORD_0":6
					},
					"indices":7,
					"material":1
				}
			]
		},
		{
			"name":"Pano1",
			"primitives":[
				{
					"attributes":{
						"POSITION":8,
						"NORMAL":9,
						"TEXCOORD_0":10
					},
					"indices":11,
					"material":1
				}
			]
		},
		{
			"name":"Pano2",
			"primitives":[
				{
					"attributes":{
						"POSITION":12,
						"NORMAL":13,
						"TEXCOORD_0":14
					},
					"indices":15,
					"material":1
				}
			]
		},
		{
			"name":"Pregador0_0",
			"primitives":[
				{
					"attributes":{
						"POSITION":16,
						"NORMAL":17,
						"TEXCOORD_0":18
					},
					"indices":19,
					"material":2
				}
			]
		},
		{
			"name":"Pregador0_1",
			"primitives":[
				{
					"attributes":{
						"POSITION":20,
						"NORMAL":21,
						"TEXCOORD_0":22
					},
					"indices":19,
					"material":2
				}
			]
		},
		{
			"name":"Pregador1_0",
			"primitives":[
				{
					"attributes":{
						"POSITION":23,
						"NORMAL":24,
						"TEXCOORD_0":25
					},
					"indices":19,
					"material":2
				}
			]
		},
		{
			"name":"Pregador1_1",
			"primitives":[
				{
					"attributes":{
						"POSITION":26,
						"NORMAL":27,
						"TEXCOORD_0":28
					},
					"indices":19,
					"material":2
				}
			]
		},
		{
			"name":"Pregador2_0",
			"primitives":[
				{
					"attributes":{
						"POSITION":29,
						"NORMAL":30,
						"TEXCOORD_0":31
					},
					"indices":19,
					"material":2
				}
			]
		},
		{
			"name":"Pregador2_1",
			"primitives":[
				{
					"attributes":{
						"POSITION":32,
						"NORMAL":33,
						"TEXCOORD_0":34
					},
					"indices":19,
					"material":2
				}
			]
		},
		{
			"name":"Prego",
			"primitives":[
				{
					"attributes":{
						"POSITION":35,
						"NORMAL":36,
						"TEXCOORD_0":37
					},
					"indices":19,
					"material":3
				}
			]
		},
		{
			"name":"Toco",
			"primitives":[
				{
					"attributes":{
						"POSITION":38,
						"NORMAL":39,
						"TEXCOORD_0":40
					},
					"indices":41,
					"material":2
				}
			]
		}
	],
	"textures":[
		{
			"sampler":0,
			"source":0
		},
		{
			"sampler":0,
			"source":1
		},
		{
			"sampler":0,
			"source":2
		}
	],
	"images":[
		{
			"mimeType":"image/png",
			"name":"corda.png",
			"uri":"tex/corda.png"
		},
		{
			"mimeType":"image/png",
			"name":"panos.png",
			"uri":"tex/panos.png"
		},
		{
			"mimeType":"image/png",
			"name":"madeira.png",
			"uri":"tex/madeira.png"
		}
	],
	"accessors":[
		{
			"bufferView":0,
			"componentType":5126,
			"count":188,
			"max":[
				2.3509020805358887,
				2.135634660720825,
				0.006000000052154064
			],
			"min":[
				-0.0009022561134770513,
				2.004293918609619,
				-0.004854102153331041
			],
			"type":"VEC3"
		},
		{
			"bufferView":1,
			"componentType":5126,
			"count":188,
			"type":"VEC3"
		},
		{
			"bufferView":2,
			"componentType":5126,
			"count":188,
			"type":"VEC2"
		},
		{
			"bufferView":3,
			"componentType":5123,
			"count":930,
			"type":"SCALAR"
		},
		{
			"bufferView":4,
			"componentType":5126,
			"count":2918,
			"max":[
				0.6510244607925415,
				2.082711935043335,
				0.03962923213839531
			],
			"min":[
				0.24909383058547974,
				1.5057752132415771,
				-0.015622719191014767
			],
			"type":"VEC3"
		},
		{
			"bufferView":5,
			"componentType":5126,
			"count":2918,
			"type":"VEC3"
		},
		{
			"bufferView":6,
			"componentType":5126,
			"count":2918,
			"type":"VEC2"
		},
		{
			"bufferView":7,
			"componentType":5123,
			"count":16224,
			"type":"SCALAR"
		},
		{
			"bufferView":8,
			"componentType":5126,
			"count":2900,
			"max":[
				1.3309082984924316,
				2.012566089630127,
				0.036844685673713684
			],
			"min":[
				0.8697927594184875,
				1.5722088813781738,
				-0.014000002294778824
			],
			"type":"VEC3"
		},
		{
			"bufferView":9,
			"componentType":5126,
			"count":2900,
			"type":"VEC3"
		},
		{
			"bufferView":10,
			"componentType":5126,
			"count":2900,
			"type":"VEC2"
		},
		{
			"bufferView":11,
			"componentType":5123,
			"count":16224,
			"type":"SCALAR"
		},
		{
			"bufferView":12,
			"componentType":5126,
			"count":2856,
			"max":[
				1.9605238437652588,
				2.0623996257781982,
				0.0403488390147686
			],
			"min":[
				1.599096655845642,
				1.4804930686950684,
				-0.017413873225450516
			],
			"type":"VEC3"
		},
		{
			"bufferView":13,
			"componentType":5126,
			"count":2856,
			"type":"VEC3"
		},
		{
			"bufferView":14,
			"componentType":5126,
			"count":2856,
			"type":"VEC2"
		},
		{
			"bufferView":15,
			"componentType":5123,
			"count":16224,
			"type":"SCALAR"
		},
		{
			"bufferView":16,
			"componentType":5126,
			"count":14,
			"max":[
				0.3065595030784607,
				2.1134488582611084,
				0.008999999612569809
			],
			"min":[
				0.2894405126571655,
				2.0434489250183105,
				-0.007281152531504631
			],
			"type":"VEC3"
		},
		{
			"bufferView":17,
			"componentType":5126,
			"count":14,
			"type":"VEC3"
		},
		{
			"bufferView":18,
			"componentType":5126,
			"count":14,
			"type":"VEC2"
		},
		{
			"bufferView":19,
			"componentType":5123,
			"count":60,
			"type":"SCALAR"
		},
		{
			"bufferView":20,
			"componentType":5126,
			"count":14,
			"max":[
				0.6105595231056213,
				2.0735185146331787,
				0.008999999612569809
			],
			"min":[
				0.5934404730796814,
				2.0035183429718018,
				-0.007281152531504631
			],
			"type":"VEC3"
		},
		{
			"bufferView":21,
			"componentType":5126,
			"count":14,
			"type":"VEC3"
		},
		{
			"bufferView":22,
			"componentType":5126,
			"count":14,
			"type":"VEC2"
		},
		{
			"bufferView":23,
			"componentType":5126,
			"count":14,
			"max":[
				0.9337595105171204,
				2.0466291904449463,
				0.008999999612569809
			],
			"min":[
				0.9166404604911804,
				1.9766291379928589,
				-0.007281152531504631
			],
			"type":"VEC3"
		},
		{
			"bufferView":24,
			"componentType":5126,
			"count":14,
			"type":"VEC3"
		},
		{
			"bufferView":25,
			"componentType":5126,
			"count":14,
			"type":"VEC2"
		},
		{
			"bufferView":26,
			"componentType":5126,
			"count":14,
			"max":[
				1.283359408378601,
				2.0410664081573486,
				0.008999999612569809
			],
			"min":[
				1.2662404775619507,
				1.9710664749145508,
				-0.007281152531504631
			],
			"type":"VEC3"
		},
		{
			"bufferView":27,
			"componentType":5126,
			"count":14,
			"type":"VEC3"
		},
		{
			"bufferView":28,
			"componentType":5126,
			"count":14,
			"type":"VEC2"
		},
		{
			"bufferView":29,
			"componentType":5126,
			"count":14,
			"max":[
				1.6517595052719116,
				2.062748432159424,
				0.008999999612569809
			],
			"min":[
				1.6346405744552612,
				1.992748498916626,
				-0.007281152531504631
			],
			"type":"VEC3"
		},
		{
			"bufferView":30,
			"componentType":5126,
			"count":14,
			"type":"VEC3"
		},
		{
			"bufferView":31,
			"componentType":5126,
			"count":14,
			"type":"VEC2"
		},
		{
			"bufferView":32,
			"componentType":5126,
			"count":14,
			"max":[
				1.9253594875335693,
				2.094325304031372,
				0.008999999612569809
			],
			"min":[
				1.908240556716919,
				2.024325132369995,
				-0.007281152531504631
			],
			"type":"VEC3"
		},
		{
			"bufferView":33,
			"componentType":5126,
			"count":14,
			"type":"VEC3"
		},
		{
			"bufferView":34,
			"componentType":5126,
			"count":14,
			"type":"VEC2"
		},
		{
			"bufferView":35,
			"componentType":5126,
			"count":14,
			"max":[
				0.05999999865889549,
				2.136657476425171,
				0.007000000216066837
			],
			"min":[
				0,
				2.123342752456665,
				-0.0056631192564964294
			],
			"type":"VEC3"
		},
		{
			"bufferView":36,
			"componentType":5126,
			"count":14,
			"type":"VEC3"
		},
		{
			"bufferView":37,
			"componentType":5126,
			"count":14,
			"type":"VEC2"
		},
		{
			"bufferView":38,
			"componentType":5126,
			"count":58,
			"max":[
				2.3753209114074707,
				2.152902841567993,
				0.24230901896953583
			],
			"min":[
				2.327744722366333,
				2.101576566696167,
				-0.03178059682250023
			],
			"type":"VEC3"
		},
		{
			"bufferView":39,
			"componentType":5126,
			"count":58,
			"type":"VEC3"
		},
		{
			"bufferView":40,
			"componentType":5126,
			"count":58,
			"type":"VEC2"
		},
		{
			"bufferView":41,
			"componentType":5123,
			"count":294,
			"type":"SCALAR"
		}
	],
	"bufferViews":[
		{
			"buffer":0,
			"byteLength":2256,
			"byteOffset":0,
			"target":34962
		},
		{
			"buffer":0,
			"byteLength":2256,
			"byteOffset":2256,
			"target":34962
		},
		{
			"buffer":0,
			"byteLength":1504,
			"byteOffset":4512,
			"target":34962
		},
		{
			"buffer":0,
			"byteLength":1860,
			"byteOffset":6016,
			"target":34963
		},
		{
			"buffer":0,
			"byteLength":35016,
			"byteOffset":7876,
			"target":34962
		},
		{
			"buffer":0,
			"byteLength":35016,
			"byteOffset":42892,
			"target":34962
		},
		{
			"buffer":0,
			"byteLength":23344,
			"byteOffset":77908,
			"target":34962
		},
		{
			"buffer":0,
			"byteLength":32448,
			"byteOffset":101252,
			"target":34963
		},
		{
			"buffer":0,
			"byteLength":34800,
			"byteOffset":133700,
			"target":34962
		},
		{
			"buffer":0,
			"byteLength":34800,
			"byteOffset":168500,
			"target":34962
		},
		{
			"buffer":0,
			"byteLength":23200,
			"byteOffset":203300,
			"target":34962
		},
		{
			"buffer":0,
			"byteLength":32448,
			"byteOffset":226500,
			"target":34963
		},
		{
			"buffer":0,
			"byteLength":34272,
			"byteOffset":258948,
			"target":34962
		},
		{
			"buffer":0,
			"byteLength":34272,
			"byteOffset":293220,
			"target":34962
		},
		{
			"buffer":0,
			"byteLength":22848,
			"byteOffset":327492,
			"target":34962
		},
		{
			"buffer":0,
			"byteLength":32448,
			"byteOffset":350340,
			"target":34963
		},
		{
			"buffer":0,
			"byteLength":168,
			"byteOffset":382788,
			"target":34962
		},
		{
			"buffer":0,
			"byteLength":168,
			"byteOffset":382956,
			"target":34962
		},
		{
			"buffer":0,
			"byteLength":112,
			"byteOffset":383124,
			"target":34962
		},
		{
			"buffer":0,
			"byteLength":120,
			"byteOffset":383236,
			"target":34963
		},
		{
			"buffer":0,
			"byteLength":168,
			"byteOffset":383356,
			"target":34962
		},
		{
			"buffer":0,
			"byteLength":168,
			"byteOffset":383524,
			"target":34962
		},
		{
			"buffer":0,
			"byteLength":112,
			"byteOffset":383692,
			"target":34962
		},
		{
			"buffer":0,
			"byteLength":168,
			"byteOffset":383804,
			"target":34962
		},
		{
			"buffer":0,
			"byteLength":168,
			"byteOffset":383972,
			"target":34962
		},
		{
			"buffer":0,
			"byteLength":112,
			"byteOffset":384140,
			"target":34962
		},
		{
			"buffer":0,
			"byteLength":168,
			"byteOffset":384252,
			"target":34962
		},
		{
			"buffer":0,
			"byteLength":168,
			"byteOffset":384420,
			"target":34962
		},
		{
			"buffer":0,
			"byteLength":112,
			"byteOffset":384588,
			"target":34962
		},
		{
			"buffer":0,
			"byteLength":168,
			"byteOffset":384700,
			"target":34962
		},
		{
			"buffer":0,
			"byteLength":168,
			"byteOffset":384868,
			"target":34962
		},
		{
			"buffer":0,
			"byteLength":112,
			"byteOffset":385036,
			"target":34962
		},
		{
			"buffer":0,
			"byteLength":168,
			"byteOffset":385148,
			"target":34962
		},
		{
			"buffer":0,
			"byteLength":168,
			"byteOffset":385316,
			"target":34962
		},
		{
			"buffer":0,
			"byteLength":112,
			"byteOffset":385484,
			"target":34962
		},
		{
			"buffer":0,
			"byteLength":168,
			"byteOffset":385596,
			"target":34962
		},
		{
			"buffer":0,
			"byteLength":168,
			"byteOffset":385764,
			"target":34962
		},
		{
			"buffer":0,
			"byteLength":112,
			"byteOffset":385932,
			"target":34962
		},
		{
			"buffer":0,
			"byteLength":696,
			"byteOffset":386044,
			"target":34962
		},
		{
			"buffer":0,
			"byteLength":696,
			"byteOffset":386740,
			"target":34962
		},
		{
			"buffer":0,
			"byteLength":464,
			"byteOffset":387436,
			"target":34962
		},
		{
			"buffer":0,
			"byteLength":588,
			"byteOffset":387900,
			"target":34963
		}
	],
	"samplers":[
		{
			"magFilter":9729,
			"minFilter":9987
		}
	],
	"buffers":[
		{
			"byteLength":388488,
			"uri":"varal.bin"
		}
	]
}
